<?xml version="1.0" standalone="no"?>
<!DOCTYPE svg PUBLIC "-//W3C//DTD SVG 20010904//EN"
 "http://www.w3.org/TR/2001/REC-SVG-20010904/DTD/svg10.dtd">
<svg version="1.0" xmlns="http://www.w3.org/2000/svg"
 width="512.000000pt" height="512.000000pt" viewBox="0 0 512.000000 512.000000"
 preserveAspectRatio="xMidYMid meet">
<metadata>
Created by potrace 1.16, written by Peter Selinger 2001-2019
</metadata>
<g transform="translate(0.000000,512.000000) scale(0.100000,-0.100000)"
fill="#000000" stroke="none">
<path d="M2432 4748 c-18 -18 -15 -53 8 -95 17 -32 20 -57 20 -160 0 -68 -5
-143 -12 -167 -10 -37 -9 -48 4 -67 14 -21 13 -26 -5 -59 -12 -19 -29 -46 -39
-59 -22 -30 -23 -53 -1 -94 9 -18 16 -41 15 -52 -2 -11 4 -40 13 -64 8 -24 15
-69 15 -101 0 -49 3 -60 23 -73 30 -20 62 -123 53 -172 -4 -21 -23 -54 -45
-78 -20 -23 -51 -60 -68 -82 -27 -35 -44 -44 -134 -75 -281 -94 -380 -191
-385 -377 -1 -61 -2 -64 -61 -130 -80 -90 -143 -175 -143 -191 0 -8 -23 -47
-51 -88 l-52 -74 17 -68 c28 -116 88 -224 174 -312 43 -43 86 -82 97 -88 19
-10 19 -11 -9 -33 -23 -18 -27 -27 -22 -51 4 -22 -2 -42 -27 -81 -150 -235
-202 -372 -217 -569 -24 -307 -31 -385 -39 -413 l-8 -30 -12 29 c-19 46 -25
112 -12 120 7 5 9 20 5 42 -4 22 -2 34 5 34 13 0 4 77 -10 96 -6 7 -1 29 11
55 35 79 20 152 -47 221 -35 36 -36 37 -29 99 7 58 6 63 -20 90 -39 41 -105
41 -147 2 l-30 -28 6 121 c3 66 13 147 22 180 14 53 21 62 47 70 73 22 61 73
-24 104 -25 9 -27 12 -16 35 9 20 8 28 -5 43 -14 16 -13 23 23 99 28 59 38 94
38 127 -1 25 -5 46 -10 46 -16 0 -8 28 37 136 50 119 49 126 -16 146 -34 10
-42 9 -59 -7 -11 -10 -20 -31 -20 -47 0 -28 -13 -37 -25 -18 -10 17 -28 11
-21 -7 9 -24 -34 -163 -50 -163 -18 0 -18 0 6 90 23 89 23 90 8 90 -17 0 -49
56 -42 73 2 7 -4 22 -16 32 -11 10 -20 23 -20 30 0 6 -11 22 -25 35 l-26 24
-32 -32 c-29 -30 -30 -34 -14 -43 28 -16 20 -32 -13 -27 -43 6 -57 -14 -35
-49 13 -19 19 -55 23 -134 l5 -108 41 -5 c23 -3 73 -8 111 -11 70 -5 151 -23
142 -31 -2 -2 -35 0 -73 6 -90 13 -252 13 -333 0 -35 -6 -66 -9 -68 -6 -3 2
10 12 29 22 18 9 34 17 35 18 1 1 -8 35 -21 76 -19 59 -21 76 -11 85 7 5 15
25 19 44 11 60 -36 87 -101 59 -15 -7 -31 -17 -34 -21 -7 -10 10 -90 39 -184
14 -45 16 -65 8 -73 -7 -7 -7 -16 2 -30 7 -12 8 -20 2 -20 -19 0 -10 -41 26
-126 30 -69 35 -89 26 -108 -6 -14 -7 -28 -1 -37 14 -22 11 -27 -20 -34 -15
-3 -38 -15 -50 -26 -36 -34 -27 -56 36 -87 77 -40 110 -111 120 -264 8 -123
23 -109 23 22 0 93 -15 172 -39 219 -8 15 -9 27 -3 33 5 5 51 12 102 15 l93 6
-7 -24 c-16 -57 -36 -174 -36 -214 0 -53 17 -68 30 -28 6 16 23 55 39 88 l29
60 1 -85 c1 -47 4 -108 7 -137 l7 -52 41 -3 c39 -3 41 -5 43 -37 1 -19 11 -47
22 -62 18 -24 19 -29 6 -29 -24 0 -92 69 -118 120 -26 49 -56 70 -102 70 -90
0 -154 -114 -111 -198 32 -62 78 -79 166 -61 32 6 64 9 71 7 15 -5 -117 -48
-148 -48 -60 0 -113 62 -113 132 -1 27 -2 30 -11 16 -21 -38 20 -141 62 -157
17 -6 -10 -19 -127 -59 -82 -28 -163 -57 -181 -64 -28 -10 -35 -10 -52 7 -24
21 -27 53 -7 81 12 16 25 19 78 17 89 -4 105 9 90 70 -13 50 -15 100 -6 135 5
18 13 22 43 22 20 0 42 5 49 12 20 20 14 65 -10 82 -35 25 -67 19 -104 -18
-36 -36 -44 -75 -20 -95 7 -6 16 -41 19 -79 4 -37 8 -76 9 -87 3 -18 -2 -20
-42 -18 -108 5 -150 -19 -150 -87 0 -84 63 -104 163 -54 l48 25 14 -35 c8 -19
20 -67 27 -106 10 -60 10 -86 -4 -169 -10 -55 -27 -127 -39 -161 -18 -54 -20
-68 -10 -101 18 -58 0 -86 -73 -115 -33 -13 -67 -31 -76 -39 -24 -22 -29 -19
-50 28 -13 28 -17 54 -13 79 4 30 2 38 -16 47 -56 31 -112 255 -95 388 6 53 7
53 41 53 64 0 97 37 53 60 -13 7 -88 11 -195 11 -180 0 -215 -7 -215 -42 0
-20 20 -29 63 -29 58 0 60 -5 55 -141 -3 -77 -12 -150 -24 -193 -17 -61 -23
-71 -51 -83 -28 -11 -33 -18 -33 -47 0 -22 -12 -52 -35 -86 -19 -29 -35 -57
-35 -64 0 -6 -14 -29 -32 -50 -28 -34 -31 -45 -32 -104 l-1 -67 770 0 770 0
-1 23 -1 22 298 0 298 0 3 -23 3 -22 345 0 345 0 3 23 3 22 257 0 c141 0 491
2 777 4 286 2 489 1 450 -2 -63 -6 -70 -9 -73 -30 l-3 -22 420 0 421 0 0 24
c0 25 -28 36 -92 36 -26 0 -28 2 -18 21 30 55 -22 99 -114 99 l-56 0 7 45 c5
38 2 50 -19 77 -32 42 -68 112 -68 133 0 8 -8 15 -18 15 -22 0 -35 25 -58 112
-18 65 -24 239 -11 291 7 24 12 27 48 27 57 0 63 24 16 64 -23 19 -37 40 -37
54 0 35 -24 84 -61 126 l-33 39 34 -8 c57 -12 78 -23 90 -45 8 -15 21 -20 49
-20 31 0 40 5 49 25 7 14 12 35 12 45 0 11 11 30 24 43 16 16 27 42 31 73 4
27 15 61 24 77 30 52 -8 79 -139 97 -115 16 -183 35 -205 60 -23 26 -29 25
-60 -6 -23 -23 -32 -26 -73 -21 -29 4 -55 2 -69 -6 -29 -16 -64 -62 -68 -90
-2 -12 -8 -40 -14 -62 -14 -56 7 -143 57 -239 53 -100 54 -125 5 -163 -41 -33
-38 -53 8 -53 l30 0 -7 -62 c-3 -35 -22 -123 -41 -197 -23 -93 -31 -137 -23
-145 14 -14 13 -39 -4 -62 -14 -19 -15 -19 -36 4 -57 61 -145 462 -125 569 6
34 8 35 40 29 35 -7 75 6 75 24 0 6 -11 20 -25 32 -31 27 -31 50 -1 102 21 36
23 49 17 101 l-6 60 -77 3 c-47 2 -78 -1 -78 -7 0 -6 28 -11 63 -13 l62 -3 3
-42 c3 -41 2 -43 -26 -43 -16 0 -50 -3 -76 -6 l-46 -7 0 56 c0 31 -4 58 -8 61
-12 7 -200 6 -272 -2 l-65 -7 -3 -62 c-2 -49 1 -68 17 -90 11 -16 22 -42 26
-59 5 -26 2 -34 -20 -48 -44 -29 -28 -56 36 -56 24 0 29 -4 29 -24 0 -27 -89
-293 -121 -361 -33 -70 -103 -110 -149 -85 -20 11 -22 18 -17 63 3 29 15 95
26 147 21 98 26 215 12 285 -7 34 -9 28 -10 -45 -2 -95 -18 -189 -56 -329 -30
-115 -31 -135 -4 -162 19 -19 28 -20 83 -14 50 5 65 3 75 -9 27 -33 -16 -76
-76 -76 -35 0 -106 42 -120 72 -23 46 -23 67 1 189 31 160 80 572 72 612 -3
17 -20 52 -37 78 -34 53 -33 73 6 109 31 29 42 21 20 -14 -9 -14 -14 -30 -10
-36 17 -28 99 -4 448 134 120 47 225 86 233 86 7 0 14 -8 14 -18 0 -22 -62
-127 -98 -166 -23 -25 -24 -27 -5 -17 51 26 132 146 133 197 0 11 14 30 30 42
27 21 30 28 30 82 0 47 5 67 25 96 49 72 21 126 -71 140 -36 5 -44 10 -39 23
4 9 11 40 17 69 15 72 -6 140 -65 207 -30 34 -51 72 -67 120 -12 39 -47 126
-76 195 -30 68 -54 129 -54 135 0 6 11 26 25 45 14 19 25 44 25 57 0 12 -25
58 -55 103 -30 44 -68 113 -85 154 -48 115 -122 188 -213 210 -16 4 -81 13
-145 21 -64 8 -137 20 -162 27 -44 13 -45 15 -61 76 -20 76 -32 91 -80 98 -39
7 -39 7 -39 53 0 27 8 63 20 85 30 60 35 120 16 183 -15 45 -15 57 -4 70 8 10
13 43 14 82 0 91 26 174 59 189 44 20 24 92 -25 92 -34 0 -67 -51 -58 -90 4
-19 -36 -25 -50 -7 -18 21 -43 127 -43 182 0 58 -11 75 -49 75 -34 0 -53 -21
-48 -53 1 -15 -8 -38 -25 -60 -25 -33 -33 -37 -75 -38 l-47 -2 39 -6 c34 -5
37 -8 24 -19 -9 -7 -46 -21 -83 -31 l-66 -19 -29 25 c-32 27 -57 91 -46 119 6
15 11 13 37 -14 17 -18 49 -37 71 -43 53 -14 59 -6 8 10 -47 14 -80 58 -80
107 0 36 -34 84 -59 84 -22 0 -46 -26 -56 -60 -4 -14 -11 -29 -15 -35 -4 -5
-10 -36 -14 -68 -7 -64 -35 -143 -46 -130 -4 4 -15 47 -23 95 -12 64 -13 93
-6 115 22 58 -29 111 -69 71z m249 -39 c9 -17 8 -25 -4 -37 -21 -20 -47 -8
-47 21 0 42 31 52 51 16z m-37 -55 c12 -5 16 -21 16 -71 0 -70 16 -112 52
-135 30 -19 78 -31 78 -19 0 14 29 41 45 41 44 0 61 -77 23 -103 -17 -11 -19
-16 -8 -16 9 -1 26 6 38 15 19 13 23 24 21 59 -3 38 1 46 30 70 17 15 44 51
59 79 l27 51 3 -35 c1 -19 -9 -87 -22 -150 -18 -88 -21 -118 -13 -129 10 -12
3 -13 -48 -7 -189 22 -412 65 -441 84 -6 4 -14 45 -17 92 -3 50 -2 75 3 60 4
-14 8 -44 9 -67 1 -52 14 -61 45 -30 23 23 56 110 56 148 0 20 17 69 24 69 2
0 11 -3 20 -6z m436 -243 c0 -11 -5 -23 -11 -27 -15 -9 -33 12 -26 30 9 23 37
20 37 -3z m-440 -81 c68 -17 182 -40 254 -51 131 -19 218 -40 246 -59 22 -14
-1 -12 -50 5 -58 20 -63 19 -47 -12 23 -45 28 -78 14 -97 -11 -15 -17 -16 -39
-5 -27 12 -42 39 -53 96 -5 25 -14 34 -40 43 -43 14 -188 29 -285 30 -72 1
-155 12 -166 23 -11 11 9 57 26 57 9 0 72 -14 140 -30z m224 -88 c53 -8 57
-12 71 -95 3 -20 19 -53 36 -71 l29 -34 -10 -74 c-17 -119 -17 -117 -65 -138
-25 -11 -45 -25 -45 -32 0 -61 -56 -146 -124 -188 -22 -13 -37 -33 -44 -58 -6
-21 -25 -51 -41 -67 -25 -23 -39 -28 -76 -27 -45 0 -47 -1 -64 -41 -51 -119
-81 -287 -81 -456 0 -101 -4 -138 -20 -184 -11 -31 -20 -64 -20 -72 0 -9 -4
-14 -9 -11 -20 13 -47 270 -43 409 2 49 5 57 21 57 14 0 21 10 26 38 9 51 45
127 94 201 34 52 39 65 29 80 -15 25 26 129 56 141 l21 9 -22 6 c-12 4 -24 13
-27 21 -8 22 57 18 104 -6 50 -25 51 -12 5 29 -25 22 -46 31 -70 31 -43 0 -46
20 -10 56 14 14 25 27 25 29 0 11 -44 3 -71 -12 -48 -28 -64 -10 -62 68 1 35
7 89 13 119 8 38 8 63 1 80 l-10 25 0 -28 -1 -28 -30 18 c-39 23 -39 55 0 132
l29 59 63 6 c156 15 251 17 322 8z m281 -152 c25 -28 24 -124 -3 -159 -23 -32
-57 -39 -70 -14 -5 10 -13 46 -17 80 -6 58 -5 64 19 88 30 30 47 31 71 5z
m-167 -377 c-15 -33 -102 -83 -117 -68 -6 7 14 36 57 84 l67 75 3 -32 c2 -17
-3 -44 -10 -59z m222 27 c0 -6 -28 -30 -62 -55 -35 -25 -88 -65 -118 -89 -60
-46 -209 -141 -214 -135 -1 2 -7 21 -13 41 -8 28 -8 40 0 45 16 12 391 200
400 202 4 0 7 -4 7 -9z m0 -104 c0 -3 -48 -41 -107 -87 -138 -105 -140 -107
-64 -69 34 17 102 48 150 69 80 35 89 37 121 25 19 -7 46 -13 60 -13 23 -1 12
-15 -90 -119 -84 -87 -134 -129 -185 -157 -217 -120 -422 -258 -539 -362 -26
-24 -52 -43 -56 -43 -11 0 -21 152 -14 217 4 32 13 70 20 85 39 76 308 264
558 389 141 70 146 72 146 65z m506 -131 c62 -39 116 -116 149 -214 30 -90 32
-142 8 -164 -10 -8 -52 -34 -93 -58 -121 -68 -241 -153 -305 -218 -32 -33 -63
-58 -67 -55 -4 3 -24 55 -44 117 -36 105 -38 120 -38 242 -1 100 3 142 17 185
24 71 55 117 89 131 105 43 256 -178 219 -319 -7 -23 -27 -56 -49 -77 -36 -36
-36 -37 -7 -22 39 20 81 64 95 101 38 100 -90 332 -195 352 -113 21 -183 -95
-271 -446 -53 -209 -68 -257 -105 -331 -63 -127 -159 -212 -338 -301 -53 -26
-91 -47 -85 -48 20 0 230 62 373 111 79 27 146 48 148 45 7 -6 -101 -91 -166
-130 -79 -48 -171 -82 -321 -117 -216 -51 -213 -54 30 -34 100 9 185 13 188
10 3 -3 -5 -16 -17 -29 -16 -17 -46 -30 -99 -41 -42 -10 -92 -28 -111 -40 -38
-25 -176 -45 -307 -45 -57 0 -65 2 -62 18 2 12 13 17 38 17 64 0 69 38 40 325
-6 58 -8 128 -5 157 6 51 7 53 43 59 207 35 424 126 500 208 21 22 66 93 100
156 34 63 69 126 78 140 9 14 0 7 -20 -14 -20 -22 -63 -83 -96 -136 -102 -167
-179 -218 -430 -285 -105 -28 -150 -31 -150 -12 0 37 52 118 99 155 43 35 417
262 591 360 59 33 85 58 144 137 56 74 101 107 175 127 101 27 195 21 257 -17z
m-1336 -168 c0 -7 -10 -49 -22 -93 -19 -66 -22 -105 -23 -234 0 -138 4 -172
33 -309 18 -84 32 -168 30 -185 l-3 -31 -52 65 c-28 36 -70 99 -92 140 -40 75
-91 230 -91 277 0 47 -19 12 -26 -47 l-7 -60 -38 31 c-54 42 -93 126 -86 184
5 53 42 112 92 151 30 23 254 123 278 124 4 0 7 -6 7 -13z m1400 -349 l-85
-41 79 -8 c44 -5 85 -14 92 -21 15 -15 86 -190 80 -196 -2 -2 -15 2 -28 9 -13
8 -57 13 -103 14 -67 0 -90 -5 -142 -29 -34 -15 -70 -38 -80 -49 -17 -20 -17
-20 2 -12 95 38 121 46 169 51 105 12 246 -51 303 -135 26 -38 60 -138 50
-147 -3 -3 -26 8 -51 26 -92 63 -103 65 -308 63 -201 -2 -222 3 -199 45 21 40
98 67 201 70 93 4 124 -2 225 -43 14 -6 10 3 -15 29 -20 21 -51 41 -75 47 -60
17 -171 4 -264 -30 l-81 -30 -23 32 c-47 64 -78 127 -72 147 16 51 178 168
305 221 101 43 115 33 20 -13z m-1852 -344 c11 -23 46 -64 77 -93 65 -59 58
-58 -99 19 -56 27 -115 63 -130 79 -33 34 -36 25 44 119 l45 53 21 -68 c11
-37 30 -86 42 -109z m-828 147 c0 -14 -18 -23 -31 -15 -8 4 -7 9 2 15 18 11
29 11 29 0z m30 -208 c0 -45 3 -88 6 -97 5 -13 -2 -16 -41 -16 l-48 0 6 96 c4
65 11 103 22 121 l18 26 18 -24 c15 -19 19 -42 19 -106z m-266 98 c10 -16 -6
-42 -23 -39 -9 2 -17 13 -19 26 -3 16 2 22 17 22 11 0 22 -4 25 -9z m516 -10
c0 -24 -25 -34 -40 -16 -15 18 -5 35 21 35 12 0 19 -7 19 -19z m-549 -100 c29
-78 35 -121 17 -121 -9 0 -21 30 -37 93 -13 50 -25 99 -28 107 -11 38 29 -30
48 -79z m969 -31 c25 -25 59 -55 75 -67 l30 -22 -35 6 c-44 6 -113 -11 -131
-34 -13 -15 -12 -15 8 -5 35 19 183 12 183 -8 0 -4 -23 -10 -51 -12 -70 -7
-89 -28 -24 -28 33 0 61 -8 90 -25 70 -40 64 -50 -25 -47 -50 2 -89 -1 -111
-11 l-34 -14 70 -13 c93 -17 128 -32 185 -80 26 -22 58 -44 71 -49 l24 -9 -28
-11 c-15 -6 -54 -29 -87 -51 l-59 -40 -73 64 c-123 107 -203 230 -228 353 -11
52 -11 53 31 124 43 72 43 72 58 48 8 -13 36 -44 61 -69z m1680 14 c12 -25 21
-47 18 -49 -7 -8 -101 -45 -104 -42 -6 6 49 137 57 137 4 0 17 -20 29 -46z
m-1104 -186 c26 -53 34 -80 34 -123 0 -53 -1 -55 -26 -55 -14 0 -40 -12 -57
-26 -25 -21 -38 -25 -66 -20 -41 6 -74 41 -121 127 -34 64 -37 87 -15 129 13
24 22 30 50 30 27 0 43 9 77 43 l43 42 23 -40 c13 -22 39 -70 58 -107z m1584
111 c74 -25 133 -98 155 -190 l6 -26 -93 -6 c-77 -5 -197 -32 -186 -42 2 -2
27 1 56 6 58 9 145 -3 169 -23 21 -17 9 -26 -222 -147 -257 -134 -291 -148
-316 -133 -28 18 -74 14 -124 -10 -24 -12 -48 -18 -52 -14 -9 9 6 22 169 147
171 131 217 193 218 290 0 66 -17 84 -79 82 -45 -2 -121 -25 -121 -37 0 -3 22
-2 49 1 26 3 51 1 54 -4 9 -14 -36 -103 -76 -149 -20 -23 -61 -54 -92 -70 -53
-27 -57 -28 -66 -11 -19 33 -94 120 -106 124 -7 3 0 -23 17 -59 16 -35 39
-101 52 -147 l22 -83 -42 -39 c-23 -22 -45 -39 -51 -39 -5 0 -28 55 -51 123
-46 136 -97 221 -149 248 l-34 18 24 10 c13 5 103 40 199 79 221 88 264 102
348 112 87 11 277 5 322 -11z m-2826 -125 c8 -20 8 -79 0 -138 l-7 -46 -66 -1
c-36 0 -86 -4 -111 -7 l-45 -7 -33 89 c-18 49 -29 93 -24 98 12 12 110 26 198
27 66 1 83 -2 88 -15z m1974 -148 c35 -32 62 -75 62 -98 0 -7 -25 -33 -55 -56
-39 -31 -55 -39 -55 -27 0 27 -39 95 -81 140 l-39 42 38 16 c73 31 80 30 130
-17z m1182 -45 c0 -85 -208 -244 -506 -388 -190 -91 -216 -87 -224 35 l-5 79
160 63 c203 80 381 162 469 216 78 48 106 47 106 -5z m-1358 2 c21 -24 28 -50
29 -109 1 -41 -5 -59 -41 -116 -40 -65 -59 -78 -87 -60 -8 5 3 29 38 79 48 70
51 91 9 78 -10 -3 -43 -34 -72 -67 -65 -75 -122 -118 -158 -118 -15 0 -39 -9
-53 -20 -14 -11 -28 -20 -32 -20 -10 0 -159 106 -173 123 -7 8 22 2 75 -16
132 -44 186 -24 253 95 l24 43 -29 -18 c-17 -11 -50 -41 -75 -69 -30 -32 -52
-49 -64 -47 -15 4 -12 12 22 64 21 34 67 86 102 115 57 51 68 56 134 66 39 6
74 12 77 13 3 0 13 -7 21 -16z m-1687 -42 c17 -11 15 -12 -20 -7 -22 3 -103 1
-180 -4 -139 -9 -181 -3 -145 21 22 15 320 6 345 -10z m-85 -41 c103 -10 177
-27 186 -42 4 -7 -54 -8 -162 -4 -93 4 -214 3 -269 -3 -110 -10 -141 -1 -81
24 75 32 181 40 326 25z m1359 -6 c-19 -23 -64 -44 -96 -44 l-28 -1 25 -14
c39 -23 60 -18 106 25 27 25 53 40 69 40 31 0 32 -11 4 -36 -12 -10 -35 -38
-51 -62 -26 -38 -34 -43 -56 -37 -51 13 -167 72 -197 101 l-30 29 90 6 c179
11 179 11 164 -7z m-348 -38 c-19 -19 -48 -37 -66 -40 -18 -4 -38 -13 -44 -20
-9 -11 3 -14 71 -18 64 -4 95 -11 134 -31 55 -28 180 -124 228 -175 26 -28 28
-34 21 -80 -5 -37 -2 -58 10 -82 26 -51 9 -47 -22 5 -138 232 -224 305 -355
305 -35 0 -70 -5 -78 -10 -10 -6 -3 -8 23 -3 87 14 182 -54 278 -199 68 -105
94 -173 85 -230 -12 -77 -144 -362 -229 -497 l-34 -53 -7 49 c-3 27 -13 59
-22 71 -15 22 -13 25 45 88 44 46 75 94 111 167 27 56 52 116 55 132 7 30 5
28 -125 -170 -22 -33 -48 -71 -59 -85 l-20 -25 -9 25 c-12 30 -56 72 -97 93
l-30 15 45 12 c64 16 102 29 127 43 19 10 12 12 -50 12 -60 0 -80 4 -118 27
-59 35 -105 88 -138 158 -20 44 -25 71 -26 132 0 43 -1 78 -3 78 -2 0 -17 -30
-35 -67 -31 -65 -32 -74 -32 -188 0 -109 3 -126 28 -188 25 -59 27 -71 17
-102 -6 -19 -11 -67 -10 -107 3 -143 -22 -309 -52 -345 -15 -18 -57 13 -74 54
-17 40 -18 197 -2 311 6 45 8 85 4 89 -4 4 -17 -6 -30 -22 -39 -49 -50 -27
-42 89 8 119 35 239 71 322 51 118 190 349 237 397 60 60 136 97 202 97 l50 0
-33 -34z m149 -68 c0 -6 -11 -7 -25 -4 -74 19 -99 42 -75 71 10 12 18 9 56
-21 24 -20 44 -41 44 -46z m838 -28 c20 -11 46 -26 56 -35 19 -15 19 -16 -7
-43 -36 -38 -34 -43 13 -36 22 4 40 5 40 2 0 -10 -81 -251 -91 -269 -11 -22
-66 -49 -99 -49 -11 0 -29 9 -41 21 -18 18 -19 28 -13 77 8 71 24 110 75 189
l41 62 -26 38 c-24 35 -25 39 -9 51 21 15 17 16 61 -8z m317 -60 c3 -5 -12
-49 -33 -97 -58 -130 -112 -308 -112 -369 l0 -28 -28 27 c-15 15 -34 27 -41
27 -15 0 -11 23 26 149 34 120 81 228 116 267 29 33 60 44 72 24z m-660 -47
c9 -9 21 -27 26 -40 14 -38 11 -174 -6 -231 l-16 -52 -55 0 c-54 0 -55 1 -71
38 -18 42 -29 163 -19 215 9 50 47 87 90 87 19 0 42 -7 51 -17z m-150 -40 c-5
-10 -10 -48 -13 -85 -5 -73 -10 -78 -81 -78 -30 0 -33 2 -25 23 4 12 7 40 7
63 0 38 3 42 46 67 55 31 76 35 66 10z m284 -76 c19 -16 8 -79 -26 -145 -41
-82 -58 -76 -23 7 38 89 38 107 0 129 -16 9 -30 21 -30 25 0 11 61 -2 79 -16z
m1744 -33 c-13 -34 -113 9 -113 49 0 2 27 -5 59 -16 42 -14 58 -23 54 -33z
m-280 29 c-18 -9 -36 -13 -40 -9 -11 10 18 26 47 25 24 0 23 -1 -7 -16z m117
2 c14 -17 7 -30 -17 -30 -29 0 -24 -22 7 -31 l30 -9 -31 -53 c-35 -61 -52 -71
-79 -47 -11 10 -20 13 -20 7 0 -6 5 -14 11 -18 6 -3 19 -27 30 -52 11 -25 42
-76 70 -113 44 -60 77 -125 68 -133 -2 -2 -24 -6 -49 -10 -36 -6 -43 -5 -32 5
30 31 14 68 -63 149 -41 43 -80 91 -85 105 -13 35 -12 95 3 122 13 24 123 123
136 123 5 0 14 -7 21 -15z m277 -30 c18 -4 36 -11 39 -17 5 -7 0 -9 -14 -6
-17 5 -19 3 -11 -11 7 -11 4 -38 -8 -86 -17 -67 -19 -70 -54 -79 -33 -8 -41
-6 -84 28 -26 20 -51 36 -55 36 -4 0 -13 19 -19 43 -7 23 -15 48 -17 55 -8 18
21 15 66 -8 58 -30 62 -28 84 43 4 12 12 17 23 13 10 -2 33 -7 50 -11z m-441
-30 c4 -8 -6 -29 -22 -47 -25 -30 -27 -31 -20 -8 4 14 10 35 13 48 6 25 21 29
29 7z m-3507 -14 c14 -9 9 -41 -6 -41 -19 1 -35 19 -30 34 7 18 16 20 36 7z
m283 -38 c51 -53 62 -122 26 -147 -34 -24 -133 -21 -158 4 -27 27 -35 65 -20
101 29 70 105 91 152 42z m282 8 c40 -45 -10 -97 -71 -75 -37 13 -43 56 -11
78 30 21 61 20 82 -3z m2406 -86 l0 -45 -40 0 -40 0 0 45 0 45 40 0 40 0 0
-45z m180 5 c0 -39 -1 -40 -35 -40 -34 0 -35 1 -35 40 0 39 1 40 35 40 34 0
35 -1 35 -40z m-92 -18 c16 -21 15 -32 -3 -32 -8 0 -15 -7 -15 -15 0 -16 24
-18 140 -15 30 1 66 -3 80 -8 24 -9 24 -9 -13 -21 l-37 -12 36 -35 c31 -28 35
-36 24 -49 -10 -12 -40 -15 -157 -15 -80 0 -153 5 -164 10 -15 8 -19 22 -19
61 0 44 3 51 25 59 21 8 25 16 25 49 0 22 5 41 13 44 18 8 50 -3 65 -21z m745
-28 c21 -18 41 -24 77 -24 54 0 65 -9 56 -46 -8 -30 -36 -32 -62 -3 -20 22
-136 79 -162 79 -13 0 -12 3 3 20 20 22 36 17 88 -26z m-3206 4 c1 -18 3 -42
5 -53 2 -16 -3 -21 -29 -23 -32 -3 -33 -2 -33 32 0 19 -3 41 -6 49 -3 10 2 17
13 20 42 11 49 7 50 -25z m1423 -8 c0 -6 -42 -10 -105 -10 -63 0 -105 4 -105
10 0 6 42 10 105 10 63 0 105 -4 105 -10z m-1520 -45 c0 -9 -11 -26 -25 -39
-28 -26 -185 -94 -278 -121 -34 -10 -57 -22 -54 -28 6 -19 80 -66 115 -73 76
-15 15 -34 -110 -34 -50 0 -77 -4 -73 -10 3 -5 30 -10 58 -10 75 0 157 -11
157 -21 0 -5 -62 -9 -138 -9 l-137 0 -18 63 c-29 100 -29 97 38 124 33 13 123
42 199 64 134 39 228 77 241 99 9 15 25 12 25 -5z m1518 -2 c-3 -16 -18 -18
-117 -21 -63 -1 -119 2 -124 7 -23 23 8 31 124 31 109 0 120 -2 117 -17z m357
-37 c14 -9 33 -33 42 -52 15 -31 16 -39 3 -77 -36 -101 -172 -116 -231 -25
l-21 33 7 -30 c13 -62 43 -88 147 -126 31 -11 69 -30 84 -42 l29 -22 -45 -7
c-25 -3 -84 -7 -132 -7 -84 -1 -88 0 -88 21 0 11 11 36 25 54 22 28 23 33 9
45 -44 37 -54 96 -26 169 32 83 124 114 197 66z m-302 -28 c35 -18 5 -25 -140
-31 -145 -6 -223 -2 -223 13 0 9 46 28 80 32 46 7 265 -4 283 -14z m-1494 -3
c63 -32 50 -113 -22 -138 -22 -8 -72 16 -81 38 -12 33 -5 66 19 90 28 29 45
31 84 10z m1394 -88 c25 -16 27 -23 27 -88 0 -38 7 -133 16 -211 8 -77 12
-143 9 -147 -4 -3 -67 -8 -142 -10 -128 -3 -135 -2 -129 15 30 99 48 207 53
328 l6 138 67 -4 c41 -2 77 -10 93 -21z m-289 -202 c-33 -252 -68 -387 -118
-450 -14 -19 -15 -18 -6 15 6 19 31 140 56 268 41 211 80 369 89 360 2 -1 -8
-88 -21 -193z m831 164 c-7 -26 -29 -55 -60 -79 -10 -8 -5 3 12 25 17 22 34
50 38 63 9 30 18 22 10 -9z m655 -26 c0 -148 41 -425 72 -489 7 -16 24 -31 38
-35 14 -4 -65 -7 -175 -8 -110 0 -206 3 -213 7 -10 7 -10 15 -2 36 5 15 24 81
40 146 16 65 35 131 41 146 16 43 28 13 30 -71 1 -69 2 -69 10 -25 6 34 20
279 19 343 0 4 32 7 70 7 l70 0 0 -57z m-2690 -48 c0 -6 -9 -18 -20 -28 -24
-20 -26 -59 -5 -77 19 -16 20 -96 1 -165 -9 -38 -14 -45 -19 -30 -13 43 -29
269 -22 322 l7 55 28 -33 c16 -19 29 -39 30 -44z m704 64 c31 -15 60 -72 50
-102 -22 -75 -129 -102 -184 -47 -25 25 -26 87 -2 117 30 39 90 53 136 32z
m2581 -28 c16 -7 11 -10 -25 -14 -95 -13 -161 -14 -157 -3 6 19 145 32 182 17z
m-21 -78 c3 -16 10 -82 16 -148 6 -66 17 -148 25 -183 8 -35 15 -66 15 -69 0
-9 -231 4 -239 13 -12 14 18 334 36 381 8 21 40 32 95 32 43 1 47 -1 52 -26z
m-3081 -10 c23 -14 -15 -23 -93 -23 -67 0 -89 3 -93 14 -4 11 3 16 26 19 34 5
147 -2 160 -10z m5 -65 c3 -16 -6 -18 -77 -18 -75 0 -81 2 -81 20 0 19 5 21
77 18 65 -3 78 -6 81 -20z m-405 2 c3 -3 10 -57 16 -122 6 -64 18 -135 26
-158 8 -24 15 -44 15 -46 0 -2 -67 -4 -148 -4 l-148 0 22 68 c25 73 44 175 44
236 l0 38 84 -3 c46 -2 86 -6 89 -9z m967 -50 c23 -14 14 -15 -104 -18 -71 -1
-131 0 -134 2 -3 3 1 13 9 22 11 13 29 15 109 12 58 -2 105 -10 120 -18z
m1160 -15 c0 -24 -2 -25 -70 -25 -68 0 -70 1 -70 25 0 24 2 25 70 25 68 0 70
-1 70 -25z m-1788 -53 c5 -30 19 -87 33 -128 14 -41 25 -77 25 -79 0 -3 -41
-5 -90 -5 -88 0 -91 1 -100 26 -8 19 -5 42 9 87 10 34 22 84 25 110 l7 48 42
-3 42 -3 7 -53z m428 -71 c0 -98 5 -121 26 -121 8 0 14 -4 14 -10 0 -5 -25
-10 -56 -10 -48 0 -55 2 -50 18 5 16 18 93 31 175 4 23 11 37 20 37 12 0 15
-18 15 -89z m183 47 c3 -18 8 -43 12 -56 7 -22 6 -23 -46 -20 l-54 3 -3 53 -3
52 44 0 c43 0 45 -1 50 -32z m1277 23 c0 -8 -141 -21 -241 -21 -54 0 -77 9
-62 24 10 9 303 7 303 -3z m-80 -73 c0 -18 7 -58 15 -88 8 -30 15 -58 15 -62
0 -5 -59 -8 -132 -8 -124 0 -130 1 -116 18 21 22 48 105 48 142 l0 30 85 0 85
0 0 -32z m-1152 -80 l3 -28 -65 0 -66 0 0 30 0 31 63 -3 c59 -3 62 -4 65 -30z
m852 18 c0 -23 -24 -26 -221 -26 -182 0 -189 1 -189 20 0 19 7 20 205 20 169
0 205 -2 205 -14z m-50 -65 c0 -16 -11 -19 -87 -24 -49 -3 -113 -14 -143 -24
l-55 -18 145 -6 c193 -7 197 -9 129 -69 -52 -46 -54 -49 -54 -100 l0 -53 -140
5 c-155 6 -207 21 -226 62 -17 37 -3 73 51 127 28 28 50 54 50 59 0 5 4 20 10
34 l10 26 155 0 c144 0 155 -1 155 -19z m-752 -38 c-2 -13 -14 -19 -40 -21
-25 -2 -43 -11 -53 -25 -13 -18 -15 -19 -15 -4 0 10 -7 29 -16 42 l-16 25 72
0 c63 0 71 -2 68 -17z m-914 -1 c12 -20 -17 -33 -94 -42 -45 -5 -85 -11 -87
-13 -2 -2 25 -14 59 -27 81 -29 124 -57 172 -110 35 -39 37 -44 22 -56 -20
-14 -183 -23 -489 -27 l-207 -2 0 33 c0 30 4 35 48 53 84 35 155 74 165 90 10
16 7 31 -15 60 -6 9 -8 24 -5 33 6 14 31 16 216 16 115 0 212 -4 215 -8z m740
-7 c-4 -8 -18 -18 -33 -21 -49 -11 -91 -25 -96 -34 -3 -4 17 -11 43 -15 26 -3
65 -16 87 -28 42 -24 83 -72 71 -84 -4 -5 -83 -8 -174 -8 -167 0 -167 0 -170
23 -2 14 10 43 32 75 20 29 36 64 36 80 l0 27 105 0 c89 0 104 -2 99 -15z
m-1659 -5 c25 -6 22 -8 -24 -9 -45 -1 -52 -3 -47 -18 7 -18 -9 -33 -36 -33
-15 0 -16 4 -7 27 16 44 43 51 114 33z m4365 -5 c0 -13 -17 -15 -112 -13 -78
2 -113 7 -116 16 -3 9 24 12 112 12 98 0 116 -2 116 -15z m-3150 -3 c36 -6 46
-11 48 -29 3 -22 -6 -30 -62 -48 -16 -5 -13 -9 22 -26 40 -20 82 -61 82 -80 0
-5 -9 -18 -20 -29 -16 -16 -33 -20 -85 -20 -61 0 -65 1 -65 23 0 22 -13 45
-75 131 -19 26 -35 57 -35 67 0 17 8 19 73 18 39 0 92 -4 117 -7z m1817 -18
c9 -24 -15 -34 -89 -34 -38 0 -68 -3 -68 -8 0 -4 21 -18 46 -31 28 -15 54 -39
67 -63 23 -39 27 -42 90 -53 20 -3 37 -10 37 -15 0 -6 -105 -10 -270 -10
l-270 0 -11 26 c-13 36 8 67 73 107 47 29 49 33 43 64 l-6 33 176 0 c152 0
176 -2 182 -16z m581 -19 c139 -16 196 -32 250 -72 34 -25 41 -47 19 -56 -11
-4 -503 -11 -544 -8 -30 2 -12 49 32 85 26 22 45 46 45 57 0 17 5 19 33 14 17
-3 92 -12 165 -20z m-1791 -35 c35 -27 59 -61 67 -93 6 -26 4 -28 -16 -25 -13
2 -22 9 -20 16 4 19 -20 48 -66 82 -23 17 -42 35 -42 41 0 15 47 2 77 -21z
m2558 16 c39 -17 55 -42 55 -89 0 -54 -23 -67 -142 -78 -56 -5 -114 -7 -127
-4 l-24 6 22 23 c28 30 27 57 -4 86 -34 32 -33 58 3 63 67 10 185 6 217 -7z
m-4479 -73 c-18 -31 -52 -75 -75 -98 -71 -71 -38 -94 157 -105 l127 -7 -178
-1 -177 -2 -11 24 c-16 34 -3 74 27 88 17 8 21 14 12 19 -9 6 -7 17 6 48 29
63 61 87 123 90 22 1 21 -1 -11 -56z m3804 -82 c47 -5 119 -18 160 -28 l75
-18 -110 -5 -110 -5 63 -9 c121 -16 122 -22 8 -29 -60 -4 -183 -7 -273 -7
-150 0 -165 2 -183 20 -24 24 -25 38 -4 68 14 21 22 22 152 22 75 0 175 -4
222 -9z m-2018 -22 c46 -15 76 -45 61 -60 -7 -7 -101 -13 -247 -16 -214 -6
-236 -5 -236 10 0 22 34 30 114 25 71 -3 81 2 41 20 -14 6 -25 19 -25 28 0 15
13 16 128 11 70 -3 144 -11 164 -18z m1228 -28 c62 -6 72 -8 36 -9 -69 -3 -52
-12 51 -27 84 -12 77 -13 -172 -11 -239 1 -260 2 -263 19 -2 10 5 21 20 26 27
11 208 12 328 2z m1465 -1 c-11 -5 -36 -16 -55 -24 -33 -14 -30 -14 86 -15
116 -1 184 -13 184 -32 0 -5 -89 -9 -202 -9 l-203 0 -20 33 c-11 17 -21 35
-23 39 -3 6 66 12 203 15 37 1 45 -1 30 -7z m-1904 -29 c4 -3 3 -16 -2 -28 -8
-23 -10 -23 -203 -23 l-194 0 -10 29 c-6 16 -8 32 -4 35 8 8 405 -4 413 -13z
m-1531 -23 l95 -25 -155 -7 c-178 -9 -545 -5 -556 6 -4 5 1 17 11 27 22 26 67
29 315 26 169 -2 208 -6 290 -27z"/>
<path d="M2593 4159 c-83 -16 -84 -28 -3 -29 41 -1 93 -7 115 -15 48 -18 45
-17 45 -6 0 12 -59 47 -90 53 -14 3 -44 2 -67 -3z"/>
<path d="M2545 4040 c3 -6 20 -17 38 -26 l31 -16 -32 -27 c-42 -34 -42 -52 1
-44 39 7 93 31 106 47 8 9 -5 21 -50 44 -59 31 -107 42 -94 22z"/>
<path d="M3089 4042 c-1 -4 -2 -26 -3 -50 -1 -33 2 -42 14 -40 22 4 26 83 6
91 -9 4 -17 3 -17 -1z"/>
<path d="M3035 3393 c-102 -99 -121 -121 -88 -103 47 26 159 135 198 193 14
20 24 37 23 36 -2 0 -61 -57 -133 -126z"/>
<path d="M903 2628 c3 -13 9 -44 12 -69 8 -53 18 -74 33 -65 7 4 5 22 -4 53
-8 25 -14 59 -14 75 0 19 -5 28 -16 28 -12 0 -15 -6 -11 -22z"/>
<path d="M315 2029 c-4 -5 -4 -21 -1 -35 6 -21 3 -24 -23 -24 l-29 0 -7 -79
c-4 -44 -4 -85 0 -90 3 -6 17 -11 31 -11 24 0 31 -15 16 -36 -4 -6 -25 -14
-47 -18 -60 -12 -105 -33 -105 -51 0 -9 16 -57 36 -108 28 -74 33 -96 25 -115
-15 -31 -14 -32 15 -32 23 0 25 -3 22 -42 -2 -34 -7 -44 -23 -47 -26 -4 -33
-17 -27 -47 4 -23 7 -24 48 -18 30 4 44 3 44 -5 0 -6 -9 -11 -20 -11 -13 0
-20 -7 -20 -19 0 -11 -5 -23 -10 -26 -30 -19 2 -25 126 -25 l136 0 -7 31 c-5
23 -3 34 10 43 25 18 17 70 -12 74 -20 3 -23 9 -23 48 0 40 2 44 25 44 28 0
29 1 14 32 -8 19 -3 41 30 121 23 53 41 101 41 106 0 12 -45 29 -109 41 -58
11 -81 24 -81 46 0 9 11 14 31 14 l32 0 -7 53 c-3 28 -6 69 -6 90 0 35 -2 37
-30 37 -26 0 -30 3 -21 17 14 27 -5 53 -39 53 -16 0 -32 -5 -35 -11z m3 -136
c3 -30 1 -33 -22 -33 -23 0 -26 4 -26 36 0 31 3 35 23 32 17 -2 23 -11 25 -35z
m50 -172 c9 -5 -7 -10 -43 -14 -32 -3 -59 -8 -62 -11 -4 -4 6 -61 32 -183 l6
-28 -24 27 c-23 25 -58 102 -73 162 -5 22 -2 26 33 35 37 10 72 17 103 19 8 1
21 -2 28 -7z m-65 -258 c-13 -2 -33 -2 -45 0 -13 2 -3 4 22 4 25 0 35 -2 23
-4z m38 -133 c22 0 39 -4 39 -10 0 -6 -30 -10 -70 -10 -58 0 -70 3 -70 16 0
13 7 15 31 10 17 -3 49 -6 70 -6z"/>
</g>
</svg>