<?xml version="1.0" standalone="no"?>
<!DOCTYPE svg PUBLIC "-//W3C//DTD SVG 20010904//EN"
 "http://www.w3.org/TR/2001/REC-SVG-20010904/DTD/svg10.dtd">
<svg version="1.0" xmlns="http://www.w3.org/2000/svg"
 width="668.000000pt" height="375.000000pt" viewBox="0 0 668.000000 375.000000"
 preserveAspectRatio="xMidYMid meet">

<g transform="translate(0.000000,375.000000) scale(0.100000,-0.100000)"
fill="#000000" stroke="none">
<path d="M2178 3733 c-30 -35 -99 -171 -113 -225 -10 -41 -11 -69 -4 -114 23
-141 23 -150 0 -181 -35 -47 -37 -92 -7 -178 15 -42 23 -81 20 -87 -4 -7 -2
-8 4 -4 7 4 12 1 12 -9 0 -9 7 -23 15 -31 20 -20 17 -120 -4 -137 -12 -10 -14
-9 -8 8 7 19 6 19 -10 -1 -10 -12 -27 -34 -37 -48 -21 -29 -42 -35 -32 -10 3
8 -2 23 -11 32 -15 16 -16 15 -9 -13 4 -19 3 -25 -3 -16 -5 8 -14 10 -21 6
-17 -10 8 -24 55 -30 24 -3 34 -1 32 7 -1 7 8 14 21 16 12 2 22 8 22 13 0 6 7
17 15 25 10 10 15 11 15 3 0 -6 -28 -39 -62 -73 -44 -44 -69 -61 -83 -58 -17
4 -16 6 8 16 26 10 27 13 13 31 -12 16 -17 18 -27 8 -11 -11 -9 -13 6 -13 15
0 16 -3 7 -12 -9 -9 -15 -9 -24 0 -17 17 -39 15 -32 -3 4 -9 0 -15 -7 -16 -8
0 -5 -5 6 -10 l20 -9 -20 3 c-12 1 -21 11 -23 25 -4 29 -27 23 -28 -7 -2 -28
-12 -37 -26 -23 -17 17 -17 65 0 78 8 6 13 17 10 24 -3 10 -8 9 -20 -4 -23
-23 -28 -20 -28 14 0 22 -5 30 -18 30 -10 0 -23 5 -30 12 -9 9 -12 8 -12 -4 0
-9 7 -18 15 -22 8 -3 15 -10 15 -16 0 -7 -6 -8 -18 -1 -19 10 -56 -4 -47 -19
3 -4 -1 -10 -9 -13 -8 -3 -12 -14 -10 -25 3 -10 -2 -24 -11 -32 -14 -12 -18
-12 -26 1 -5 8 -7 26 -5 41 3 16 0 28 -8 31 -11 5 -13 -7 -10 -54 3 -56 2 -60
-22 -69 -33 -13 -37 -13 -31 4 3 8 -5 18 -20 25 -33 15 -40 8 -19 -24 15 -23
15 -26 1 -32 -12 -4 -13 -8 -5 -13 10 -6 8 -19 -5 -54 -10 -25 -21 -44 -25
-41 -4 2 -5 -7 -2 -21 5 -30 -13 -46 -43 -38 -11 3 -16 2 -10 -3 12 -10 19
-43 9 -43 -4 0 -13 8 -20 18 -12 16 -13 16 -14 0 0 -9 5 -20 10 -23 16 -10 12
-28 -4 -22 -9 4 -17 -1 -20 -11 -5 -15 -18 -16 -128 -11 -132 7 -557 53 -648
70 -30 5 -104 14 -165 19 -60 5 -166 16 -235 25 -69 9 -150 19 -180 22 -30 3
-58 11 -62 17 -4 6 -8 -544 -8 -1221 l0 -1233 2094 0 c2047 0 2094 0 2089 19
-3 10 0 21 5 25 11 7 25 -21 16 -35 -3 -5 64 -9 163 -9 l168 1 35 29 c30 24
32 30 18 35 -10 4 -18 15 -18 25 0 13 11 19 41 24 54 9 61 0 26 -30 -18 -16
-24 -25 -15 -28 64 -16 292 -56 323 -56 31 0 51 9 84 36 l45 35 34 -37 c28
-31 37 -35 64 -30 17 3 34 6 39 6 14 0 10 22 -8 42 -15 17 -15 18 1 18 9 0 15
4 12 9 -3 5 0 26 8 47 l13 39 13 -41 c12 -40 14 -42 64 -49 28 -5 53 -9 56
-10 3 -1 31 -7 63 -14 l58 -13 61 61 c34 33 60 62 57 64 -7 6 -333 70 -359 71
-30 1 -36 39 -7 44 10 2 17 -3 17 -12 0 -23 4 -21 57 29 26 25 58 48 70 51 12
3 91 -9 175 -26 84 -18 158 -33 164 -34 6 -1 36 23 68 52 31 28 65 52 74 52
23 0 324 -59 329 -64 8 -8 -14 -40 -51 -75 -35 -34 -37 -35 -73 -22 -20 8 -57
15 -82 17 -25 1 -90 10 -144 19 -81 13 -102 14 -115 3 -33 -26 -102 -93 -102
-100 0 -6 15 -10 215 -53 162 -35 154 -30 117 -68 -18 -18 -32 -36 -32 -40 0
-4 120 -7 266 -7 153 0 263 4 260 9 -3 5 0 11 8 14 7 3 17 23 20 44 18 97 38
173 47 173 5 0 9 -9 9 -20 0 -14 5 -18 16 -13 14 5 16 2 10 -23 -16 -64 -17
-99 -3 -119 14 -19 16 -18 22 20 4 22 12 58 17 80 l11 40 18 -65 c10 -36 16
-73 13 -82 -3 -10 -1 -18 4 -18 6 0 8 -9 5 -20 -4 -14 0 -20 11 -20 15 0 16
93 14 1103 -2 606 -5 969 -8 807 l-5 -295 -23 -3 c-17 -3 -20 -7 -13 -16 8 -9
-5 -12 -57 -10 -37 1 -78 5 -92 9 -30 8 -121 8 -129 0 -3 -4 1 -10 9 -15 11
-7 3 -10 -25 -9 -31 0 -35 2 -20 9 l20 8 -20 7 c-11 4 -27 10 -35 13 -8 3 -24
7 -35 8 -11 2 -36 5 -55 8 -19 3 -73 10 -119 16 -47 6 -88 13 -91 15 -4 2 -87
15 -186 29 -320 46 -343 50 -341 59 2 10 -15 14 -83 20 -25 3 -33 2 -17 0 15
-2 27 -9 27 -14 0 -5 -10 -7 -22 -4 -13 2 -104 14 -203 25 -99 12 -189 24
-200 27 -19 6 -18 7 4 13 14 3 -66 17 -185 32 -154 19 -211 23 -216 14 -6 -8
-8 -8 -8 0 0 7 -42 16 -102 23 -129 15 -145 17 -243 30 -351 49 -546 70 -579
64 -17 -4 -27 -2 -23 4 3 5 -9 10 -27 11 -43 3 -77 10 -85 17 -7 8 -63 106
-96 171 -40 79 -142 179 -217 213 -35 16 -89 41 -121 55 -33 15 -60 26 -62 24
-2 -2 -24 -31 -49 -65 -27 -37 -56 -65 -70 -69 -40 -10 -162 3 -202 22 -23 11
-41 29 -48 46 -6 15 -15 28 -21 28 -13 0 -75 121 -75 146 0 10 -7 26 -16 36
-14 14 -14 20 -4 33 12 15 3 37 -23 56 -5 3 -10 26 -13 50 -4 40 -3 41 7 17
13 -33 29 -37 29 -7 0 20 -7 38 -51 135 -11 22 -19 51 -19 65 0 14 -4 29 -9
35 -10 9 -15 51 -13 92 2 28 39 30 73 3 13 -10 35 -22 49 -26 14 -4 30 -11 35
-15 20 -15 51 -17 63 -3 10 10 10 13 -1 13 -20 0 -51 36 -38 45 6 3 11 2 11
-4 0 -17 38 -23 60 -9 12 8 19 20 16 31 -7 28 20 19 53 -18 34 -39 43 -44 34
-17 -5 13 -3 14 6 6 10 -9 10 -17 1 -34 -8 -15 -8 -25 -1 -34 21 -25 15 -71
-17 -128 -41 -71 -41 -91 2 -117 35 -22 65 -23 160 -4 54 11 62 36 9 28 -35
-6 -40 -3 -59 27 -16 23 -24 56 -28 113 -4 44 -8 98 -10 120 -9 119 -41 154
-156 174 -52 8 -74 8 -112 -4 -27 -8 -48 -10 -48 -6 0 10 -38 24 -57 22 -7 -1
-13 4 -13 12 0 18 32 47 53 47 22 0 23 47 2 70 -9 10 -18 27 -20 40 -2 12 -7
25 -9 28 -14 13 73 141 92 134 7 -2 16 5 19 17 5 19 17 25 51 24 6 -1 12 3 12
7 0 13 39 19 44 6 3 -8 7 -7 14 2 7 11 10 10 16 -3 4 -11 13 -15 26 -12 25 6
89 -10 110 -28 8 -7 24 -15 35 -17 15 -2 19 2 17 17 l-4 20 17 -20 c10 -13 18
-16 21 -9 6 14 65 3 109 -20 28 -15 62 -70 83 -136 12 -35 26 -240 17 -240 -3
0 -14 5 -24 12 -22 14 -121 -3 -158 -28 -29 -18 -48 -57 -40 -78 8 -21 25 -20
29 2 3 13 8 9 21 -15 26 -48 67 -38 67 16 0 23 1 24 20 6 33 -30 25 -72 -12
-66 -5 0 -8 -4 -8 -9 0 -16 53 1 68 22 7 10 19 18 27 18 14 0 23 36 23 92 0
14 7 41 17 60 9 18 20 59 25 91 14 95 -16 321 -46 351 -8 8 -14 20 -14 27 0 6
-11 22 -26 35 l-25 24 -453 0 c-419 0 -454 -1 -468 -17z m-2 -537 c43 -43 57
-70 30 -60 -7 3 -22 21 -32 40 -11 20 -30 42 -44 49 -14 8 -19 14 -11 15 7 0
33 -20 57 -44z m-87 -109 c1 -55 7 -90 20 -117 11 -22 16 -40 12 -40 -4 0 -21
35 -39 78 -33 82 -40 138 -20 175 11 21 11 21 19 2 4 -11 8 -55 8 -98z m610
99 c31 -17 19 -23 -47 -25 -29 0 -57 -3 -62 -6 -4 -3 -10 2 -14 10 -4 10 1 15
14 15 11 0 20 5 20 10 0 14 61 12 89 -4z m415 -32 c9 -8 16 -22 16 -29 0 -11
-5 -11 -30 1 -16 9 -35 12 -41 8 -8 -5 -9 -3 -4 6 6 10 4 12 -8 7 -10 -3 -17
-4 -17 -1 0 6 40 22 57 23 6 1 19 -6 27 -15z m-944 -52 c0 -6 6 -13 13 -15 7
-3 5 -6 -5 -6 -22 -1 -24 -19 -4 -27 17 -6 19 -85 3 -95 -5 -4 2 -15 17 -24
29 -19 34 -35 11 -35 -8 0 -15 -5 -15 -11 0 -5 5 -7 10 -4 6 3 10 -3 10 -14 0
-10 4 -21 10 -23 5 -1 6 -9 1 -16 -6 -10 -14 -10 -35 -3 -34 14 -44 38 -21 55
15 11 16 17 5 48 -8 20 -19 35 -28 34 -29 -2 -37 71 -17 147 2 4 3 17 4 28 1
21 2 21 21 -4 11 -14 20 -30 20 -35z m500 18 c0 -5 -2 -10 -4 -10 -3 0 -8 5
-11 10 -3 6 -1 10 4 10 6 0 11 -4 11 -10z m360 -20 c0 -5 -4 -10 -10 -10 -5 0
-10 5 -10 10 0 6 5 10 10 10 6 0 10 -4 10 -10z m-799 -127 c-10 -17 -10 -16
-11 3 0 23 13 41 18 25 2 -6 -1 -18 -7 -28z m589 -127 c0 -17 -2 -18 -10 -6
-8 13 -10 13 -10 1 0 -11 -3 -12 -11 -4 -7 7 -9 23 -4 40 6 27 7 27 21 9 8
-11 14 -29 14 -40z m-1060 -191 c0 -7 4 -15 10 -17 6 -2 6 -8 0 -18 -8 -13
-10 -13 -10 2 0 9 -9 20 -20 23 -20 6 -25 16 -14 28 9 9 34 -4 34 -18z m490
-96 c80 -75 254 -209 274 -209 3 0 40 -16 81 -35 68 -32 80 -35 113 -25 64 17
82 14 82 -17 0 -16 -5 -45 -10 -65 -8 -28 -6 -63 6 -140 23 -142 28 -198 16
-198 -11 0 -42 61 -42 83 0 9 -8 23 -17 33 -11 10 -17 34 -18 63 -1 25 -5 74
-10 109 -9 67 -4 64 -65 46 -9 -3 -28 -45 -46 -101 -28 -88 -30 -100 -18 -129
7 -17 11 -34 8 -36 -11 -12 -33 -171 -34 -248 l0 -55 -77 130 c-86 145 -113
184 -113 169 0 -5 5 -15 11 -21 14 -14 22 -73 10 -73 -4 0 -14 11 -21 25 -7
13 -17 22 -22 19 -4 -3 -8 2 -8 10 0 9 -5 16 -11 16 -7 0 -8 -7 -3 -17 4 -10
9 -37 12 -61 4 -44 4 -44 -17 -26 -12 10 -21 28 -21 39 0 30 -23 70 -40 70 -8
0 -14 8 -14 18 2 20 -12 23 -20 5 -3 -7 -4 -1 -1 15 4 21 1 27 -12 28 -17 1
-17 2 0 6 19 5 22 14 8 29 -6 5 -11 32 -13 59 -2 29 -9 55 -18 62 -11 8 -15
32 -14 92 0 44 -3 76 -7 70 -3 -6 -6 2 -6 18 1 15 -9 74 -21 130 -27 125 -28
204 -3 203 3 0 49 -41 101 -91z m-413 19 c-3 -7 -5 -2 -5 12 0 14 2 19 5 13 2
-7 2 -19 0 -25z m89 17 c-7 -19 4 -19 32 1 13 9 25 14 28 12 2 -3 -14 -15 -36
-27 -22 -12 -40 -18 -40 -12 0 14 11 41 17 41 3 0 3 -7 -1 -15z m-70 -70 c-20
-15 -36 -19 -36 -10 0 5 38 23 50 24 3 0 -4 -6 -14 -14z m969 -425 c9 -58 19
-116 22 -130 3 -14 2 -22 -2 -18 -8 8 -45 199 -45 237 0 46 8 16 25 -89z m42
-217 c5 -16 6 -41 2 -58 -7 -30 -7 -30 -6 5 0 19 -3 45 -7 58 -4 12 -5 22 -3
22 3 0 9 -12 14 -27z m-422 -70 c-6 -18 5 -44 16 -37 5 3 9 0 9 -5 0 -18 -19
-12 -30 10 -7 11 -9 28 -6 36 5 13 4 13 -7 4 -12 -9 -14 -6 -13 19 l1 30 17
-23 c10 -12 16 -28 13 -34z m2418 0 c-7 -2 -19 -2 -25 0 -7 3 -2 5 12 5 14 0
19 -2 13 -5z m-2348 -113 c3 -5 1 -10 -4 -10 -6 0 -11 5 -11 10 0 6 2 10 4 10
3 0 8 -4 11 -10z m-414 -33 c-8 -8 -11 -7 -11 4 0 9 3 19 7 23 4 4 9 2 11 -4
3 -7 -1 -17 -7 -23z m1259 -187 c6 -74 18 -180 26 -235 8 -62 12 -148 9 -225
-7 -189 -5 -177 -16 -157 -6 10 -7 36 -1 65 14 80 -6 350 -29 378 -6 7 -8 21
-5 30 3 9 3 20 0 25 -3 6 -7 81 -9 167 -4 181 7 159 25 -48z m-1303 154 c-3
-3 -12 -4 -19 -1 -8 3 -5 6 6 6 11 1 17 -2 13 -5z m-107 -30 c0 -2 -9 -8 -19
-14 -14 -7 -22 -7 -27 2 -5 7 -3 8 6 3 10 -6 12 -4 7 7 -4 12 -1 14 14 11 10
-3 19 -7 19 -9z m4340 -24 c0 -13 -11 -13 -30 0 -12 8 -11 10 8 10 12 0 22 -4
22 -10z m176 -19 c34 -6 40 -9 19 -10 -16 0 -47 2 -68 5 -31 6 -35 9 -26 21 9
10 14 11 19 3 4 -6 29 -15 56 -19z m133 -18 c2 -2 -3 -3 -11 -3 -9 0 -19 7
-22 16 -6 15 -4 15 11 3 10 -7 20 -15 22 -16z m-3319 -20 c-11 -17 -11 -17 -6
0 3 10 6 24 7 30 0 9 2 9 5 0 3 -7 0 -20 -6 -30z m3277 21 c-3 -3 -12 -4 -19
-1 -8 3 -5 6 6 6 11 1 17 -2 13 -5z m-4599 -59 c-3 -3 -9 2 -12 12 -6 14 -5
15 5 6 7 -7 10 -15 7 -18z m1149 -7 c-3 -7 -5 -2 -5 12 0 14 2 19 5 13 2 -7 2
-19 0 -25z m-1126 -23 c5 4 6 -2 2 -11 -4 -12 -3 -15 5 -10 8 5 10 2 6 -9 -4
-8 -1 -22 6 -30 7 -9 10 -18 7 -22 -6 -5 -48 81 -46 95 0 4 3 1 6 -6 2 -6 9
-10 14 -7z m1833 -16 c-3 -5 -11 -9 -17 -9 -7 0 -6 4 3 10 10 6 11 10 3 10 -7
0 -13 5 -13 11 0 8 5 8 15 -1 8 -7 12 -16 9 -21z m-509 -29 c3 -5 3 -15 -1
-21 -6 -11 -23 6 -24 24 0 10 18 9 25 -3z m-888 -62 c-3 -7 -5 -2 -5 12 0 14
2 19 5 13 2 -7 2 -19 0 -25z m860 0 c-3 -8 -6 -5 -6 6 -1 11 2 17 5 13 3 -3 4
-12 1 -19z m-1231 0 c5 -7 3 -8 -6 -3 -9 6 -11 -1 -6 -26 l6 -34 -13 30 c-8
17 -12 33 -10 38 6 11 21 9 29 -5z m1145 -51 c-6 -6 -14 -7 -18 -2 -5 4 -2 10
5 12 6 3 13 14 13 26 2 20 2 20 6 -2 3 -13 0 -28 -6 -34z m74 -17 c3 -5 1 -10
-4 -10 -6 0 -11 5 -11 10 0 6 2 10 4 10 3 0 8 -4 11 -10z m65 -10 c18 -12 2
-12 -25 0 -13 6 -15 9 -5 9 8 0 22 -4 30 -9z m-943 -52 c-3 -7 -5 -2 -5 12 0
14 2 19 5 13 2 -7 2 -19 0 -25z m803 17 c0 -8 -4 -15 -10 -15 -5 0 -10 7 -10
15 0 8 5 15 10 15 6 0 10 -7 10 -15z m73 -6 c3 -12 10 -18 16 -14 6 3 11 2 11
-4 0 -5 -5 -13 -11 -17 -14 -8 -53 31 -45 45 11 17 23 13 29 -10z m-1152 -32
c9 -17 22 -31 28 -30 5 2 8 -4 5 -12 -6 -14 34 -95 47 -95 3 0 9 -14 13 -31 4
-21 10 -28 18 -23 7 4 10 3 5 -1 -4 -5 0 -19 8 -32 9 -13 12 -23 7 -23 -11 0
-62 78 -62 96 0 8 -3 14 -7 14 -11 0 -93 147 -93 166 0 15 18 -2 31 -29z
m1096 1 c-3 -7 -5 -2 -5 12 0 14 2 19 5 13 2 -7 2 -19 0 -25z m-717 -13 c-7
-9 -15 -13 -17 -11 -6 6 20 36 26 30 2 -2 -2 -10 -9 -19z m-93 -17 c-3 -8 -6
-5 -6 6 -1 11 2 17 5 13 3 -3 4 -12 1 -19z m923 -8 c0 -5 -4 -10 -10 -10 -5 0
-10 5 -10 10 0 6 5 10 10 10 6 0 10 -4 10 -10z m-833 -32 c-3 -8 -6 -5 -6 6
-1 11 2 17 5 13 3 -3 4 -12 1 -19z m733 12 c0 -5 -4 -10 -10 -10 -5 0 -10 5
-10 10 0 6 5 10 10 10 6 0 10 -4 10 -10z m150 2 c0 -5 -7 -9 -15 -9 -8 0 -15
4 -15 9 0 4 7 8 15 8 8 0 15 -4 15 -8z m-1080 -12 c0 -5 -4 -10 -10 -10 -5 0
-10 5 -10 10 0 6 5 10 10 10 6 0 10 -4 10 -10z m485 -20 c3 -6 -1 -7 -9 -4
-18 7 -21 14 -7 14 6 0 13 -4 16 -10z m535 0 c-20 -13 -33 -13 -25 0 3 6 14
10 23 10 15 0 15 -2 2 -10z m-903 -32 c-3 -7 -5 -2 -5 12 0 14 2 19 5 13 2 -7
2 -19 0 -25z m57 -49 c-7 -12 -51 -12 -59 0 -3 5 0 13 7 17 6 4 14 2 16 -4 2
-7 8 -12 14 -12 6 0 7 17 4 43 l-6 42 15 -39 c8 -21 12 -42 9 -47z m-87 9 c-3
-8 -6 -5 -6 6 -1 11 2 17 5 13 3 -3 4 -12 1 -19z m110 -35 c-3 -10 -5 -2 -5
17 0 19 2 27 5 18 2 -10 2 -26 0 -35z m-207 27 c0 -5 -7 -7 -15 -4 -8 4 -15 8
-15 10 0 2 7 4 15 4 8 0 15 -4 15 -10z m120 -30 c0 -5 -7 -7 -15 -4 -8 4 -15
8 -15 10 0 2 7 4 15 4 8 0 15 -4 15 -10z m113 -35 c4 -27 3 -35 -3 -25 -5 8
-10 28 -10 44 0 39 6 30 13 -19z m24 -7 c-3 -8 -6 -5 -6 6 -1 11 2 17 5 13 3
-3 4 -12 1 -19z m-140 -20 c-3 -8 -6 -5 -6 6 -1 11 2 17 5 13 3 -3 4 -12 1
-19z m-133 -13 c3 -8 1 -15 -4 -15 -6 0 -10 7 -10 15 0 8 2 15 4 15 2 0 6 -7
10 -15z m2716 -5 c90 -6 179 -7 235 -2 50 5 92 7 95 4 3 -2 -5 -11 -17 -19
-30 -20 -29 -33 2 -33 19 0 25 -5 25 -22 0 -28 -90 -98 -126 -98 -25 0 -30 14
-25 67 1 14 -8 28 -23 38 -35 23 -62 6 -69 -42 -6 -38 -7 -39 -47 -35 -22 2
-43 8 -46 13 -3 5 -20 9 -38 9 -37 0 -278 39 -286 46 -2 3 6 7 18 11 12 3 23
9 23 14 1 5 2 14 3 20 2 20 69 49 101 44 17 -2 95 -9 175 -15z m-2490 -30
c-18 -11 -24 -6 -16 16 5 14 9 15 19 5 9 -9 9 -14 -3 -21z m-181 -46 c31 -61
20 -67 -13 -8 -29 51 -30 54 -18 54 5 0 19 -21 31 -46z m211 10 c0 -8 -4 -12
-10 -9 -5 3 -10 10 -10 16 0 5 5 9 10 9 6 0 10 -7 10 -16z m2127 10 c-3 -3
-12 -4 -19 -1 -8 3 -5 6 6 6 11 1 17 -2 13 -5z m-1257 -40 c0 -8 -5 -12 -10
-9 -6 4 -8 11 -5 16 9 14 15 11 15 -7z m1755 6 c-3 -5 -11 -10 -16 -10 -6 0
-7 5 -4 10 3 6 11 10 16 10 6 0 7 -4 4 -10z m-2658 -32 c-3 -8 -6 -5 -6 6 -1
11 2 17 5 13 3 -3 4 -12 1 -19z m-99 -23 c-3 -3 -9 2 -12 12 -6 14 -5 15 5 6
7 -7 10 -15 7 -18z m3312 -7 c0 -6 7 -20 16 -30 14 -14 14 -20 4 -33 -18 -21
-40 -19 -40 5 0 23 10 25 30 8 7 -7 4 0 -8 16 -24 31 -28 46 -12 46 6 0 10 -5
10 -12z m-730 -8 c0 -5 -4 -10 -10 -10 -5 0 -10 5 -10 10 0 6 5 10 10 10 6 0
10 -4 10 -10z m1486 -30 c8 0 14 -4 14 -8 0 -4 -19 -7 -42 -6 -55 3 -57 4 -33
14 11 5 26 7 33 4 8 -2 20 -4 28 -4z m71 -4 c-2 -6 -12 -11 -22 -11 -10 0 -20
5 -22 11 -2 7 7 12 22 12 15 0 24 -5 22 -12z m-1837 0 c0 -2 -7 -7 -16 -10 -8
-3 -12 -2 -9 4 6 10 25 14 25 6z m-54 -74 c-3 -2 -11 -2 -19 1 -9 3 -12 16 -9
37 l5 33 13 -33 c8 -18 12 -35 10 -38z m497 48 c3 -11 1 -20 -4 -20 -5 0 -9 9
-9 20 0 11 2 20 4 20 2 0 6 -9 9 -20z m-399 -15 c-7 -16 -44 -41 -44 -29 0 9
33 43 42 43 4 1 5 -6 2 -14z m-2346 -20 c-3 -3 -9 2 -12 12 -6 14 -5 15 5 6 7
-7 10 -15 7 -18z m2752 -5 c0 -5 -4 -10 -10 -10 -5 0 -10 5 -10 10 0 6 5 10
10 10 6 0 10 -4 10 -10z m580 0 c-10 -6 -11 -10 -2 -10 20 0 14 -20 -10 -31
-21 -9 -21 -9 5 -4 29 6 38 -10 10 -17 -25 -7 -43 1 -43 18 0 8 -5 14 -11 14
-8 0 -9 4 0 13 6 8 8 17 4 20 -3 4 9 7 28 7 26 0 30 -3 19 -10z m-1505 -14
c17 7 29 -12 14 -21 -14 -9 -60 15 -53 27 4 6 10 6 16 0 6 -6 16 -8 23 -6z
m645 -6 c0 -5 -4 -10 -10 -10 -5 0 -10 5 -10 10 0 6 5 10 10 10 6 0 10 -4 10
-10z m169 -42 c37 -18 124 -24 155 -12 9 3 16 17 16 30 0 23 2 24 43 18 23 -4
43 -8 45 -9 1 -1 -23 -24 -54 -50 l-56 -49 -72 13 c-57 9 -77 18 -103 43 -18
18 -33 41 -32 52 0 21 0 21 10 1 6 -11 27 -28 48 -37z m-70 0 c1 -5 -3 -8 -9
-8 -5 0 -10 12 -9 28 0 24 1 25 9 7 5 -11 9 -23 9 -27z m-319 13 c0 -5 -9 -7
-20 -4 -11 3 -20 7 -20 9 0 2 9 4 20 4 11 0 20 -4 20 -9z m517 3 c-3 -3 -12
-4 -19 -1 -8 3 -5 6 6 6 11 1 17 -2 13 -5z m-967 -34 c0 -5 -5 -10 -11 -10 -5
0 -7 5 -4 10 3 6 8 10 11 10 2 0 4 -4 4 -10z m447 -6 c-3 -3 -12 -4 -19 -1 -8
3 -5 6 6 6 11 1 17 -2 13 -5z m113 -5 c0 -5 4 -8 9 -5 5 4 19 2 32 -2 l23 -9
-27 -17 c-25 -17 -27 -17 -48 2 -11 11 -18 25 -14 31 8 14 25 14 25 0z m220 1
c0 -5 -7 -10 -15 -10 -8 0 -15 5 -15 10 0 6 7 10 15 10 8 0 15 -4 15 -10z
m737 -5 c-4 -10 5 -17 31 -25 20 -5 44 -10 52 -10 8 0 50 -8 93 -17 l78 -17
-48 -48 c-45 -47 -50 -49 -88 -43 -50 8 -61 17 -91 82 -14 29 -27 53 -29 53
-8 0 16 -65 24 -68 6 -2 8 -9 5 -16 -3 -8 2 -20 10 -29 22 -22 10 -27 -63 -26
-36 0 -59 3 -50 7 8 4 22 14 31 22 14 14 13 16 -11 28 -22 11 -23 12 -3 8 12
-2 23 0 23 5 1 5 3 14 4 19 1 6 3 28 4 50 1 30 5 40 17 40 10 0 14 -6 11 -15z
m-1512 -15 c3 -5 -1 -10 -10 -10 -9 0 -13 5 -10 10 3 6 8 10 10 10 2 0 7 -4
10 -10z m1445 -20 c-5 -17 -15 -37 -23 -45 -9 -8 -17 -19 -19 -25 -2 -5 -19
-7 -41 -3 l-38 6 47 48 c57 58 87 66 74 19z m-1123 14 c-3 -3 -12 -4 -19 -1
-8 3 -5 6 6 6 11 1 17 -2 13 -5z m123 -30 c0 -12 -7 -14 -32 -9 -52 11 -57 25
-10 25 32 0 42 -4 42 -16z m333 9 c-7 -2 -19 -2 -25 0 -7 3 -2 5 12 5 14 0 19
-2 13 -5z m1050 -13 c32 -7 56 -14 54 -17 -6 -5 -146 23 -155 32 -4 4 4 4 18
1 14 -3 51 -10 83 -16z m333 5 c-3 -9 0 -15 9 -15 10 0 15 -10 15 -30 0 -21 5
-30 16 -30 8 0 13 -4 9 -9 -3 -5 5 -11 17 -13 33 -4 38 -60 7 -81 -13 -10 -19
-22 -16 -31 5 -12 0 -16 -17 -16 -19 0 -22 -4 -18 -29 3 -21 -2 -33 -19 -45
-34 -23 -56 -20 -76 12 -10 15 -24 32 -31 37 -16 13 -25 85 -10 85 5 0 8 6 5
14 -4 10 5 16 29 21 29 5 33 9 24 20 -7 8 -16 12 -21 9 -21 -13 -49 8 -49 36
0 38 42 53 66 24 9 -11 13 -14 9 -7 -8 16 23 63 42 63 9 0 13 -6 9 -15z
m-1051 -17 c54 -12 165 -57 165 -68 0 -4 -19 -22 -42 -40 l-41 -34 -166 31
-166 31 -37 -25 c-20 -14 -54 -40 -75 -59 -31 -27 -35 -33 -18 -33 11 -1 71
-10 133 -22 91 -17 115 -25 124 -42 8 -16 8 -22 -1 -25 -6 -2 -9 -13 -5 -27 4
-16 -1 -28 -20 -43 -31 -24 -32 -28 -6 -35 33 -8 23 -27 -15 -27 -34 0 -48 14
-22 23 16 6 1 11 -100 33 -67 15 -83 22 -83 36 0 10 -7 21 -16 25 -12 5 -15
15 -10 48 5 33 3 46 -14 65 -26 30 -26 32 10 53 23 14 30 25 30 48 0 16 2 29
5 29 2 0 27 -5 55 -11 l51 -11 66 52 c73 56 72 56 198 28z m-785 4 c0 -13 -12
-22 -22 -16 -10 6 -1 24 13 24 5 0 9 -4 9 -8z m346 -22 c8 0 14 -7 14 -15 0
-8 -4 -15 -10 -15 -5 0 -10 5 -10 10 0 6 -6 10 -14 10 -10 0 -12 7 -8 23 5 18
7 19 10 5 2 -10 10 -18 18 -18z m111 24 c-3 -3 -12 -4 -19 -1 -8 3 -5 6 6 6
11 1 17 -2 13 -5z m1150 -20 c-3 -3 -12 -4 -19 -1 -8 3 -5 6 6 6 11 1 17 -2
13 -5z m-2124 -50 c-3 -8 -11 -14 -19 -14 -15 0 -18 18 -7 46 6 16 7 16 19 -1
7 -9 10 -23 7 -31z m2592 9 c27 -27 33 -38 23 -45 -17 -12 -110 -2 -119 13 -4
6 -12 9 -17 5 -6 -4 -16 2 -22 13 -6 11 -6 22 -1 25 5 3 11 -1 15 -9 8 -23 31
-18 46 10 18 34 31 32 75 -12z m-2330 -33 c-7 -11 35 -31 48 -23 4 2 7 0 7 -6
0 -5 24 -14 53 -21 115 -24 130 -30 116 -46 -7 -9 -25 -22 -41 -30 -27 -14
-28 -14 -28 11 0 54 -83 71 -96 19 -10 -38 -57 -33 -83 10 -27 43 -26 61 1 80
26 19 32 20 23 6z m307 -5 c0 -5 -5 -11 -11 -13 -6 -2 -11 4 -11 13 0 9 5 15
11 13 6 -2 11 -8 11 -13z m-2002 -21 c0 -8 -5 -12 -10 -9 -6 4 -8 11 -5 16 9
14 15 11 15 -7z m2058 4 c-6 -18 -28 -21 -28 -4 0 9 7 16 16 16 9 0 14 -5 12
-12z m122 2 c0 -5 -12 -10 -26 -10 -14 0 -23 4 -19 10 3 6 15 10 26 10 10 0
19 -4 19 -10z m985 -10 c-3 -5 -18 -10 -33 -10 -21 0 -24 2 -12 10 20 13 53
13 45 0z m21 -15 c-21 -16 -76 -18 -116 -5 -17 6 -9 7 25 4 28 -3 61 -1 75 5
35 14 38 13 16 -4z m889 5 c4 -6 -7 -10 -24 -10 -32 0 -36 -6 -25 -35 5 -12 9
-13 14 -4 5 7 16 9 26 5 16 -6 15 -10 -11 -31 -23 -19 -26 -24 -12 -25 9 0 17
-7 17 -15 0 -17 -16 -20 -26 -4 -4 6 -20 8 -38 5 -53 -10 -93 41 -56 71 8 7
11 13 5 13 -5 0 5 7 24 15 18 8 37 13 41 10 5 -3 11 -1 15 5 8 13 42 13 50 0z
m-2645 -25 c0 -8 -4 -15 -10 -15 -5 0 -10 7 -10 15 0 8 5 15 10 15 6 0 10 -7
10 -15z m-1523 -1 c-3 -3 -12 -4 -19 -1 -8 3 -5 6 6 6 11 1 17 -2 13 -5z
m1713 -31 c0 -7 -7 -13 -15 -13 -16 0 -19 9 -9 35 5 13 8 14 15 3 5 -7 9 -19
9 -25z m550 29 c0 -14 -11 -21 -26 -15 -8 3 -11 9 -8 14 7 11 34 12 34 1z
m-2080 -40 c25 -6 65 -16 89 -22 24 -6 75 -12 113 -14 38 -2 71 -6 74 -9 6 -6
1 -9 -131 -88 -49 -29 -108 -66 -129 -81 -55 -40 -62 -37 -58 24 2 29 -4 86
-12 127 -14 68 -13 108 3 83 3 -5 26 -14 51 -20z m1738 -4 c-6 -18 -28 -21
-28 -4 0 9 7 16 16 16 9 0 14 -5 12 -12z m355 -5 c-7 -2 -19 -2 -25 0 -7 3 -2
5 12 5 14 0 19 -2 13 -5z m-233 -52 c16 -32 13 -63 -7 -59 -13 2 -19 14 -21
41 -3 40 11 49 28 18z m43 -23 c-2 -5 1 -8 7 -8 13 0 9 -21 -5 -23 -11 -2 -26
53 -18 66 7 12 23 -24 16 -35z m-570 -2 c6 -16 -2 -28 -14 -20 -12 7 -11 34 0
34 5 0 11 -6 14 -14z m217 -1 c0 -8 -7 -15 -15 -15 -16 0 -20 12 -8 23 11 12
23 8 23 -8z m-542 -12 c-5 -25 -28 -28 -28 -4 0 12 6 21 16 21 9 0 14 -7 12
-17z m1132 8 c0 -5 -7 -12 -16 -15 -14 -5 -15 -4 -4 9 14 17 20 19 20 6z m475
-11 c0 -10 -10 -15 -34 -15 -37 0 -54 20 -24 28 31 9 58 3 58 -13z m-551 -5
c25 -4 35 -10 29 -16 -12 -12 -90 4 -107 21 -8 9 -5 10 14 6 14 -3 42 -8 64
-11z m1646 -2 c0 -3 -8 -15 -17 -26 -10 -11 -13 -17 -6 -13 7 3 33 1 58 -5 35
-9 43 -14 35 -24 -6 -7 -20 -11 -30 -8 -25 7 -26 -12 -2 -26 29 -16 2 -30 -68
-36 -36 -2 -57 -2 -47 1 21 7 23 24 1 24 -8 0 -12 5 -8 11 3 6 0 15 -7 20 -11
7 -9 13 10 28 l24 18 -24 6 c-30 8 -16 24 26 30 52 7 55 7 55 0z m-2050 -48
c-7 -8 -24 -15 -38 -15 -26 0 -26 0 8 29 26 22 36 26 38 15 2 -8 -2 -21 -8
-29z m1885 35 c8 -13 -15 -13 -35 0 -12 8 -11 10 7 10 12 0 25 -4 28 -10z
m-1773 -38 c10 -7 16 -18 12 -23 -9 -16 -44 21 -43 45 0 15 2 17 6 6 4 -8 15
-21 25 -28z m-427 17 c10 -15 -1 -23 -20 -15 -9 3 -13 10 -10 16 8 13 22 13
30 -1z m585 -9 c0 -5 -7 -10 -15 -10 -8 0 -15 5 -15 10 0 6 7 10 15 10 8 0 15
-4 15 -10z m-200 -12 c0 -7 3 -23 6 -35 5 -17 2 -23 -10 -23 -12 0 -16 9 -16
35 0 19 5 35 10 35 6 0 10 -6 10 -12z m503 -23 c1 -5 -6 -11 -15 -13 -11 -2
-18 3 -18 13 0 17 30 18 33 0z m-751 -19 c12 -18 10 -25 -17 -51 -25 -26 -78
-34 -90 -15 -3 5 0 10 7 10 10 0 10 2 -1 9 -11 7 -9 10 8 16 12 4 27 17 33 30
7 16 16 21 32 17 11 -3 24 -10 28 -16z m1904 9 c-4 -13 -2 -13 14 -5 12 7 21
7 25 0 12 -19 -3 -26 -46 -22 l-43 4 23 19 c28 23 35 24 27 4z m-1506 -31 c0
-8 -7 -14 -15 -14 -10 0 -15 10 -15 26 0 22 2 25 15 14 8 -7 15 -19 15 -26z
m-710 15 c0 -5 3 -8 8 -5 4 2 18 -2 32 -10 24 -13 23 -13 -20 -9 -39 4 -72 10
-90 15 -9 3 34 19 53 19 9 1 17 -4 17 -10z m1070 -9 c0 -5 -7 -10 -16 -10 -8
0 -12 5 -9 10 3 6 10 10 16 10 5 0 9 -4 9 -10z m-910 -15 c0 -8 -7 -15 -15
-15 -8 0 -15 7 -15 15 0 8 7 15 15 15 8 0 15 -7 15 -15z m416 -52 c-14 -14
-23 4 -13 27 l10 25 5 -23 c2 -13 1 -26 -2 -29z m1971 0 c-3 -3 -25 -2 -49 2
l-43 8 45 11 c36 9 46 8 48 -2 2 -8 1 -16 -1 -19z"/>
<path d="M2280 2062 c0 -10 43 -42 56 -42 10 0 -17 30 -38 41 -10 6 -18 6 -18
1z"/>
<path d="M2351 1984 c0 -11 3 -14 6 -6 3 7 2 16 -1 19 -3 4 -6 -2 -5 -13z"/>
<path d="M6371 384 c0 -11 3 -14 6 -6 3 7 2 16 -1 19 -3 4 -6 -2 -5 -13z"/>
<path d="M6347 373 c-4 -3 -7 -20 -6 -37 l1 -31 9 34 c10 33 8 47 -4 34z"/>
<path d="M6305 360 c-3 -5 -1 -10 4 -10 6 0 11 5 11 10 0 6 -2 10 -4 10 -3 0
-8 -4 -11 -10z"/>
<path d="M2725 3069 c-4 -6 -5 -12 -2 -15 2 -3 7 2 10 11 7 17 1 20 -8 4z"/>
<path d="M2985 3030 c-3 -5 -1 -10 4 -10 6 0 11 5 11 10 0 6 -2 10 -4 10 -3 0
-8 -4 -11 -10z"/>
<path d="M1706 2823 c-12 -12 -5 -23 14 -23 11 0 20 4 20 9 0 11 -26 22 -34
14z"/>
<path d="M1838 2793 c6 -2 18 -2 25 0 6 3 1 5 -13 5 -14 0 -19 -2 -12 -5z"/>
<path d="M2025 2770 c-3 -5 -1 -10 4 -10 6 0 11 5 11 10 0 6 -2 10 -4 10 -3 0
-8 -4 -11 -10z"/>
<path d="M1940 2760 c0 -5 5 -10 10 -10 6 0 10 5 10 10 0 6 -4 10 -10 10 -5 0
-10 -4 -10 -10z"/>
<path d="M1614 2686 c-3 -14 -1 -33 5 -43 8 -15 10 -10 11 25 0 47 -6 55 -16
18z"/>
<path d="M1928 2693 c7 -3 16 -2 19 1 4 3 -2 6 -13 5 -11 0 -14 -3 -6 -6z"/>
<path d="M2630 2653 c0 -7 7 -13 15 -13 16 0 60 -25 83 -48 24 -22 83 -42 125
-42 50 0 41 12 -16 19 -35 5 -43 10 -45 30 -4 22 -1 23 29 17 18 -3 57 -9 86
-13 45 -5 53 -3 53 10 0 18 -15 22 -105 32 -33 4 -78 9 -100 11 -85 10 -125 9
-125 -3z"/>
<path d="M2970 2616 c0 -9 5 -16 10 -16 6 0 10 4 10 9 0 6 -4 13 -10 16 -5 3
-10 -1 -10 -9z"/>
<path d="M2685 2590 c-3 -5 -1 -10 4 -10 6 0 11 5 11 10 0 6 -2 10 -4 10 -3 0
-8 -4 -11 -10z"/>
<path d="M1506 2491 c-4 -7 -5 -15 -2 -18 9 -9 19 4 14 18 -4 11 -6 11 -12 0z"/>
<path d="M1468 2418 c9 -9 15 -9 24 0 9 9 7 12 -12 12 -19 0 -21 -3 -12 -12z"/>
<path d="M5013 1803 c9 -2 25 -2 35 0 9 3 1 5 -18 5 -19 0 -27 -2 -17 -5z"/>
<path d="M5093 1793 c9 -2 25 -2 35 0 9 3 1 5 -18 5 -19 0 -27 -2 -17 -5z"/>
<path d="M5175 1780 c31 -8 112 -13 104 -6 -2 2 -33 6 -69 9 -41 3 -54 2 -35
-3z"/>
<path d="M5503 1743 c9 -2 23 -2 30 0 6 3 -1 5 -18 5 -16 0 -22 -2 -12 -5z"/>
<path d="M5653 1723 c9 -2 23 -2 30 0 6 3 -1 5 -18 5 -16 0 -22 -2 -12 -5z"/>
<path d="M5287 39 c4 -15 8 -17 14 -8 8 14 3 29 -11 29 -4 0 -6 -9 -3 -21z"/>
<path d="M5480 15 c-11 -13 -4 -15 61 -14 74 1 71 7 -12 23 -27 5 -40 2 -49
-9z"/>
</g>
</svg>
