<?xml version="1.0" standalone="no"?>
<!DOCTYPE svg PUBLIC "-//W3C//DTD SVG 20010904//EN"
 "http://www.w3.org/TR/2001/REC-SVG-20010904/DTD/svg10.dtd">
<svg version="1.0" xmlns="http://www.w3.org/2000/svg"
 width="405.000000pt" height="720.000000pt" viewBox="0 0 405.000000 720.000000"
 preserveAspectRatio="xMidYMid meet">

<g transform="translate(0.000000,720.000000) scale(0.100000,-0.100000)"
fill="#000000" stroke="none">
<path d="M0 3600 l0 -3600 2025 0 2025 0 0 1789 0 1788 -77 7 c-43 4 -107 10
-143 13 -36 3 -66 9 -68 14 -2 5 -20 9 -40 9 -36 1 -38 2 -77 83 -122 249
-165 316 -280 432 -60 61 -126 118 -145 127 -264 124 -338 157 -354 160 -13 2
-27 -8 -42 -29 -12 -18 -25 -29 -29 -25 -5 4 -5 2 -1 -5 8 -15 -95 -154 -153
-206 -23 -21 -54 -43 -69 -48 -42 -16 -322 3 -322 22 0 5 -13 9 -30 9 -16 0
-30 4 -30 9 0 5 -6 16 -14 24 -8 8 -23 31 -33 53 -11 23 -27 40 -41 44 -13 3
-22 7 -22 10 1 3 -4 18 -11 34 -11 24 -11 30 2 40 17 12 14 35 -7 51 -17 14
-28 55 -15 55 19 0 12 26 -14 50 -14 13 -25 31 -26 39 0 12 -3 11 -9 -4 -6
-14 -9 -16 -11 -5 -2 21 -9 72 -11 93 -1 9 -7 17 -13 17 -16 0 -32 60 -24 90
3 14 5 34 2 46 -3 14 3 24 19 32 22 10 22 11 2 11 -18 1 -21 7 -19 46 0 27 -4
46 -11 49 -7 3 -10 15 -7 28 4 18 2 20 -6 8 -9 -13 -10 -13 -15 0 -2 8 -7 23
-10 33 -8 25 2 41 19 27 9 -7 16 -6 25 5 10 12 9 15 -6 17 -11 0 -27 1 -36 0
-13 -1 -18 6 -18 27 0 21 -6 30 -21 34 -12 3 -18 10 -15 15 5 9 -7 56 -28 100
-5 13 -10 57 -11 99 l0 75 37 15 c36 14 38 14 72 -14 20 -15 36 -34 36 -42 0
-10 3 -11 13 -3 16 14 37 11 69 -10 34 -22 96 -28 83 -8 -4 6 11 10 37 11 l43
1 -35 10 c-49 14 -124 54 -129 69 -2 8 4 10 19 6 18 -5 21 -2 17 13 -3 11 1
24 9 31 11 9 14 8 14 -3 0 -9 9 -27 21 -42 40 -51 124 -20 117 44 -1 16 1 30
5 30 4 0 14 0 22 0 20 0 109 -86 101 -98 -3 -5 2 -9 10 -9 15 0 15 10 -2 52
-7 19 -7 19 9 3 9 -9 21 -18 25 -20 5 -1 13 -14 17 -27 6 -19 4 -23 -8 -18
-10 4 -16 -2 -20 -21 -3 -15 -9 -38 -13 -52 -7 -22 -6 -24 9 -11 15 12 17 10
14 -25 -1 -22 -6 -45 -11 -52 -5 -8 -9 -33 -10 -55 -1 -23 -17 -73 -35 -112
-47 -98 -50 -127 -17 -170 16 -21 36 -35 49 -35 16 0 19 -3 8 -9 -22 -14 25
-25 101 -23 54 1 75 6 105 26 21 15 41 22 47 17 17 -13 96 20 96 40 0 16 -35
18 -56 4 -13 -8 -43 -15 -66 -15 -38 0 -47 5 -76 40 -33 40 -33 40 -33 148 1
59 -1 123 -5 142 -3 19 -7 71 -10 115 -8 168 -13 197 -31 221 -43 58 -246 120
-380 117 l-62 -2 6 37 c3 20 10 42 15 49 7 8 5 18 -6 28 -9 9 -16 25 -16 36 0
10 -4 19 -10 19 -5 0 -10 8 -10 18 0 10 -7 27 -15 38 -8 10 -15 31 -15 46 0
32 -20 79 -30 73 -4 -3 -3 16 3 42 7 34 6 48 -2 51 -14 5 -15 32 -1 32 5 0 15
-9 22 -20 13 -21 48 -28 48 -10 0 6 -9 10 -20 10 -29 0 -24 18 10 38 16 9 30
21 30 26 0 5 -7 3 -15 -4 -12 -10 -15 -10 -15 1 0 15 59 59 78 59 6 0 14 11
18 25 3 14 12 25 20 25 17 0 18 17 2 23 -8 3 -6 6 5 6 9 1 17 -3 17 -9 0 -5 5
-10 11 -10 6 0 8 7 5 16 -6 15 -4 15 11 3 9 -8 14 -9 10 -3 -4 7 -1 14 7 17 8
3 17 -1 20 -9 9 -24 26 -6 27 29 l1 32 11 -27 c12 -31 25 -36 33 -14 7 17 34
10 34 -9 0 -21 29 -26 61 -10 18 10 29 12 29 5 0 -6 8 -9 18 -6 9 3 30 -1 46
-9 15 -8 37 -15 47 -15 11 0 19 -4 19 -10 0 -5 6 -10 14 -10 8 0 17 -11 20
-25 5 -21 10 -24 26 -15 10 5 25 7 33 4 8 -3 17 2 20 11 5 11 14 14 32 9 21
-5 25 -3 25 15 0 18 4 20 26 15 14 -4 57 -7 95 -8 63 -1 69 -3 74 -25 5 -18 9
-21 18 -12 27 27 77 -9 77 -57 0 -10 4 -22 9 -27 17 -18 69 -125 57 -119 -6 3
-1 -4 12 -15 23 -20 23 -24 16 -125 -6 -97 -5 -108 16 -143 20 -34 21 -45 15
-136 -5 -64 -4 -97 2 -94 6 4 13 31 16 62 6 55 11 70 61 156 18 33 29 68 33
115 3 38 12 79 20 91 9 13 10 23 4 27 -5 4 -23 31 -39 61 -17 30 -26 53 -22
50 4 -3 10 2 14 10 3 8 12 15 21 15 10 0 15 10 15 33 0 31 -21 141 -35 182 -6
18 -4 17 14 -4 26 -29 27 -21 2 20 -12 19 -20 26 -23 17 -3 -7 -5 1 -5 17 0
26 -11 49 -63 135 -5 8 -12 28 -15 44 -3 16 -14 30 -26 33 -10 3 -22 16 -25
29 -3 13 -12 28 -20 35 -9 8 -11 16 -4 29 8 14 5 16 -14 13 -18 -4 -26 1 -32
19 -4 12 -7 30 -6 38 4 27 -60 89 -96 95 -32 5 -32 4 -21 -17 8 -17 8 -20 0
-12 -6 6 -13 20 -16 32 -3 16 1 22 15 22 10 0 22 -4 25 -10 3 -5 23 -10 43
-10 43 0 55 -7 71 -37 12 -23 61 -33 61 -13 0 6 5 10 10 10 6 0 10 -9 10 -20
0 -13 7 -20 20 -20 13 0 20 7 20 20 0 25 21 26 39 1 12 -16 16 -17 28 -6 7 8
13 25 13 39 0 14 5 26 10 26 6 0 10 -4 10 -10 0 -5 6 -10 14 -10 7 0 19 -7 26
-15 7 -8 16 -15 21 -15 5 0 9 7 9 15 0 21 30 19 31 -2 0 -11 4 -8 11 10 6 17
16 26 26 25 13 -2 18 6 20 30 3 33 16 42 26 20 5 -10 7 -10 12 0 3 6 12 12 20
12 21 0 18 50 -3 51 -14 0 -15 2 -3 6 16 7 33 26 51 56 9 15 7 19 -11 24 -17
5 -20 11 -15 32 4 14 11 28 16 29 5 2 9 21 9 43 l0 39 -1740 0 -1740 0 0
-3600z m3403 3533 c-7 -2 -21 -2 -30 0 -10 3 -4 5 12 5 17 0 24 -2 18 -5z
m-19 -48 c4 -11 13 -14 31 -9 15 4 25 2 25 -5 0 -6 -7 -11 -15 -11 -8 0 -24
-5 -34 -12 -15 -9 -22 -8 -36 5 -13 14 -14 19 -3 31 17 20 24 20 32 1z m-1067
-49 c3 -3 -10 -6 -30 -6 -20 0 -38 4 -41 9 -7 10 61 8 71 -3z m58 -9 c16 -13
15 -14 -13 -9 -18 2 -32 8 -32 13 0 13 24 11 45 -4z m135 -7 c27 0 96 -38 87
-47 -4 -3 -24 4 -47 16 -27 14 -59 21 -95 21 -30 0 -55 4 -55 9 0 5 19 8 43 6
23 -2 53 -4 67 -5z m122 -51 c2 -5 18 -11 36 -11 17 -1 32 -5 32 -10 0 -10 -7
-10 -52 3 -21 5 -38 14 -38 19 0 13 17 13 22 -1z m-677 -39 c-170 -42 -308
-112 -443 -225 -99 -83 -104 -88 -175 -224 -54 -103 -87 -155 -93 -148 -5 5
17 59 27 67 3 3 23 37 44 75 20 39 48 84 61 102 13 17 24 35 24 39 0 9 61 64
72 64 4 0 8 7 8 15 0 8 5 15 11 15 6 0 26 15 44 34 18 19 36 32 39 29 3 -4 6
-2 6 4 0 6 25 22 56 37 35 17 52 30 48 38 -4 7 -3 8 4 4 6 -4 19 -2 29 3 60
32 106 51 137 57 20 3 39 10 42 15 3 5 21 9 40 9 19 0 34 4 34 9 0 4 12 6 27
3 22 -4 14 -8 -42 -22z m818 -10 c14 -11 30 -20 36 -20 6 0 11 -4 11 -10 0
-13 -46 -13 -71 1 -11 6 -18 17 -15 24 3 8 0 16 -7 19 -7 2 -5 5 4 5 9 1 28
-8 42 -19z m137 -120 c0 -5 -5 -10 -11 -10 -5 0 -7 5 -4 10 3 6 8 10 11 10 2
0 4 -4 4 -10z m-166 -356 c3 -8 2 -12 -4 -9 -6 3 -10 10 -10 16 0 14 7 11 14
-7z m-117 -76 c-3 -7 -5 -2 -5 12 0 14 2 19 5 13 2 -7 2 -19 0 -25z m3 -54 c0
-8 -4 -14 -10 -14 -5 0 -10 9 -10 21 0 11 5 17 10 14 6 -3 10 -13 10 -21z
m-1397 -21 c-7 -2 -19 -2 -25 0 -7 3 -2 5 12 5 14 0 19 -2 13 -5z m3 -54 c-3
-17 -15 -42 -26 -56 -19 -25 -20 -25 -20 -4 0 12 4 19 10 16 6 -4 10 8 10 29
0 29 7 41 29 45 2 1 1 -13 -3 -30z m794 1 c-8 -5 -22 -9 -30 -9 -10 0 -8 3 5
9 27 12 43 12 25 0z m1145 -120 c3 -5 1 -10 -4 -10 -6 0 -11 5 -11 10 0 6 2
10 4 10 3 0 8 -4 11 -10z m-1955 -45 c-7 -9 -15 -13 -17 -11 -7 7 7 26 19 26
6 0 6 -6 -2 -15z m21 -52 c-4 -15 -12 -28 -19 -31 -7 -2 -10 3 -7 12 3 9 7 23
10 31 8 27 24 16 16 -12z m19 -78 c0 -19 -4 -35 -10 -35 -11 0 -13 30 -4 54
10 25 14 19 14 -19z m9 -117 c0 -37 -2 -40 -10 -20 -5 13 -7 28 -3 33 3 5 0 9
-5 9 -6 0 -11 5 -11 10 0 6 7 10 15 10 11 0 15 -11 14 -42z m-6 -82 c3 -8 -1
-17 -9 -20 -9 -4 -14 1 -14 14 0 23 15 27 23 6z m-33 -35 c0 -5 -7 -14 -15
-21 -16 -14 -18 -10 -9 14 6 17 24 22 24 7z m780 -51 c12 -8 11 -10 -7 -10
-13 0 -23 5 -23 10 0 13 11 13 30 0z m-833 -42 c-3 -8 -6 -5 -6 6 -1 11 2 17
5 13 3 -3 4 -12 1 -19z m282 -53 c0 -5 -8 1 -19 14 -11 12 -17 28 -14 33 7 11
33 -28 33 -47z m779 8 c23 -8 39 -19 36 -24 -3 -5 -36 -9 -73 -9 -60 0 -118
-12 -173 -35 -17 -7 -20 9 -5 33 5 6 5 17 1 24 -4 6 -3 8 3 5 5 -3 21 0 36 8
29 15 93 24 117 17 8 -2 34 -11 58 -19z m-1013 -53 c13 24 13 24 23 -15 5 -22
10 -57 11 -77 2 -42 31 -140 56 -188 9 -18 14 -35 10 -38 -9 -9 -21 13 -56
103 -16 44 -40 100 -51 125 -11 25 -22 65 -24 90 l-4 45 11 -35 11 -35 13 25z
m983 -42 c-7 -19 -38 -22 -38 -4 0 10 9 16 21 16 12 0 19 -5 17 -12z m-368
-54 c0 -8 -5 -12 -10 -9 -6 4 -8 11 -5 16 9 14 15 11 15 -7z m-485 -54 c8 0
15 5 15 10 0 6 10 10 23 10 21 0 22 -4 22 -60 0 -65 -14 -83 -36 -44 -14 28
-28 16 -29 -26 -1 -44 -39 49 -40 96 0 47 11 64 22 34 4 -11 14 -20 23 -20z
m116 -200 c5 0 9 -7 9 -15 0 -8 -7 -15 -15 -15 -21 0 -65 45 -65 65 0 13 6 12
31 -9 17 -14 35 -26 40 -26z m29 -135 c0 -14 -4 -25 -10 -25 -5 0 -10 11 -10
25 0 14 5 25 10 25 6 0 10 -11 10 -25z m925 5 c3 -5 3 -25 -1 -45 -4 -25 -11
-35 -25 -35 -15 0 -19 7 -19 39 0 35 8 47 32 50 4 1 10 -3 13 -9z m-1009 -322
c42 -34 97 -97 110 -127 11 -25 84 -119 84 -107 0 3 13 -7 28 -22 16 -15 40
-36 54 -47 14 -11 59 -50 99 -87 112 -100 168 -143 234 -176 33 -17 83 -42
110 -56 80 -40 187 -52 286 -32 45 9 84 14 87 12 2 -3 -5 -51 -16 -108 -16
-82 -18 -121 -12 -193 4 -49 12 -103 19 -118 14 -37 14 -38 -6 -30 -14 5 -12
0 6 -20 31 -34 23 -43 -15 -16 -25 18 -24 17 4 -8 26 -24 32 -37 32 -69 0 -46
-9 -84 -20 -84 -9 0 -30 79 -30 115 0 18 -9 31 -29 43 -29 16 -30 18 -34 117
-3 87 -12 171 -35 305 -4 25 -7 29 -10 15 -6 -29 -18 -39 -65 -50 l-42 -11
-47 -153 c-26 -84 -52 -159 -58 -166 -8 -10 -8 -20 3 -37 8 -13 18 -36 21 -53
7 -29 7 -29 -8 -10 -8 11 -16 25 -16 31 0 6 -7 17 -14 24 -11 8 -10 1 4 -27
28 -59 33 -102 16 -158 -9 -27 -16 -72 -17 -100 0 -27 -4 -59 -9 -70 -8 -19
-8 -19 -19 5 l-12 25 7 -25 c7 -30 17 -250 11 -250 -5 0 -74 106 -118 183 -19
33 -44 75 -56 95 -12 21 -26 46 -31 57 -6 11 -37 62 -71 112 -56 86 -60 96
-55 136 3 30 0 48 -9 55 -12 10 -13 4 -7 -33 5 -31 3 -45 -4 -42 -6 2 -13 25
-16 52 -3 27 -11 50 -18 53 -9 3 -10 -2 -2 -22 6 -16 6 -27 0 -31 -5 -3 -12
12 -16 34 -6 37 -32 64 -119 119 -24 15 -132 339 -185 551 -60 240 -74 359
-48 401 16 25 19 25 54 -2z m1114 -858 c0 -11 -2 -20 -4 -20 -2 0 -6 9 -9 20
-3 11 -1 20 4 20 5 0 9 -9 9 -20z m5 -40 c3 -5 1 -10 -4 -10 -6 0 -11 5 -11
10 0 6 2 10 4 10 3 0 8 -4 11 -10z m-175 -55 c0 -13 -4 -14 -20 -5 -11 6 -20
13 -20 15 0 3 9 5 20 5 11 0 20 -7 20 -15z m177 -37 c-3 -7 -5 -2 -5 12 0 14
2 19 5 13 2 -7 2 -19 0 -25z m-928 -37 c1 -35 -5 -22 -12 24 -5 28 -4 34 3 20
5 -11 9 -31 9 -44z m748 33 c-3 -3 -12 -4 -19 -1 -8 3 -5 6 6 6 11 1 17 -2 13
-5z m30 -16 c-3 -8 -6 -5 -6 6 -1 11 2 17 5 13 3 -3 4 -12 1 -19z m8 -88 c-3
-5 -13 -10 -21 -10 -8 0 -14 5 -14 10 0 6 9 10 21 10 11 0 17 -4 14 -10z
m-758 -22 c-3 -8 -6 -5 -6 6 -1 11 2 17 5 13 3 -3 4 -12 1 -19z m743 -109 c0
-11 -4 -18 -10 -14 -5 3 -7 12 -3 20 7 21 13 19 13 -6z m40 -19 c0 -5 -5 -10
-11 -10 -5 0 -7 5 -4 10 3 6 8 10 11 10 2 0 4 -4 4 -10z m-16 -60 l7 -25 -15
25 c-17 28 -21 50 -7 35 5 -6 12 -21 15 -35z m76 -222 c0 -5 -4 -8 -10 -8 -5
0 -10 10 -10 23 0 18 2 19 10 7 5 -8 10 -18 10 -22z m70 18 c0 -3 -4 -8 -10
-11 -5 -3 -10 -1 -10 4 0 6 5 11 10 11 6 0 10 -2 10 -4z m-260 -116 c0 -5 -2
-10 -4 -10 -3 0 -8 5 -11 10 -3 6 -1 10 4 10 6 0 11 -4 11 -10z m107 -32 c-3
-7 -5 -2 -5 12 0 14 2 19 5 13 2 -7 2 -19 0 -25z m190 0 c-3 -8 -6 -5 -6 6 -1
11 2 17 5 13 3 -3 4 -12 1 -19z m-77 8 c0 -3 -4 -8 -10 -11 -5 -3 -10 -1 -10
4 0 6 5 11 10 11 6 0 10 -2 10 -4z m-90 -116 c0 -5 -7 -10 -16 -10 -8 0 -12 5
-9 10 3 6 10 10 16 10 5 0 9 -4 9 -10z m100 -9 c0 -6 -4 -13 -10 -16 -5 -3
-10 1 -10 9 0 9 5 16 10 16 6 0 10 -4 10 -9z m0 -121 c0 -5 -5 -10 -11 -10 -5
0 -7 5 -4 10 3 6 8 10 11 10 2 0 4 -4 4 -10z m-125 -320 c3 -5 1 -10 -4 -10
-6 0 -11 5 -11 10 0 6 2 10 4 10 3 0 8 -4 11 -10z m102 -22 c-3 -8 -6 -5 -6 6
-1 11 2 17 5 13 3 -3 4 -12 1 -19z m-48 -401 c8 -10 7 -14 -4 -14 -8 0 -15 6
-15 14 0 7 2 13 4 13 2 0 9 -6 15 -13z m-118 -484 c-8 -15 -10 -15 -11 -2 0
17 10 32 18 25 2 -3 -1 -13 -7 -23z m59 -28 c0 -8 -4 -15 -10 -15 -5 0 -7 7
-4 15 4 8 8 15 10 15 2 0 4 -7 4 -15z m-10 -454 c0 -6 -4 -13 -10 -16 -5 -3
-10 1 -10 9 0 9 5 16 10 16 6 0 10 -4 10 -9z m-160 -471 c0 -5 -4 -10 -10 -10
-5 0 -10 5 -10 10 0 6 5 10 10 10 6 0 10 -4 10 -10z m50 0 c0 -5 -2 -10 -4
-10 -3 0 -8 5 -11 10 -3 6 -1 10 4 10 6 0 11 -4 11 -10z m-116 -56 c3 -9 6
-32 7 -52 0 -20 4 -55 9 -77 6 -28 7 -13 3 51 l-5 91 66 -17 c36 -9 69 -19 72
-23 4 -4 18 -7 31 -7 22 0 210 -66 226 -80 6 -5 -180 -124 -218 -139 -5 -2
-23 -14 -40 -27 -35 -26 -133 -84 -142 -84 -3 0 -3 41 0 90 4 50 3 90 -2 90
-4 0 -11 28 -14 63 -4 34 -10 79 -13 100 -7 37 8 53 20 21z m1819 -115 c14
-10 -17 -29 -33 -19 -11 7 -12 11 0 24 7 9 16 13 19 9 3 -4 10 -10 14 -14z"/>
<path d="M2745 6910 c-3 -5 -1 -10 4 -10 6 0 11 5 11 10 0 6 -2 10 -4 10 -3 0
-8 -4 -11 -10z"/>
<path d="M1921 3544 c0 -11 3 -14 6 -6 3 7 2 16 -1 19 -3 4 -6 -2 -5 -13z"/>
<path d="M1951 3541 c8 -12 15 -17 17 -11 2 6 8 8 12 5 5 -3 11 -1 15 5 3 5 0
10 -9 10 -8 0 -22 3 -31 6 -15 6 -15 4 -4 -15z"/>
<path d="M1950 3491 c0 -6 4 -13 10 -16 6 -3 7 1 4 9 -7 18 -14 21 -14 7z"/>
<path d="M1922 3450 c0 -14 2 -19 5 -12 2 6 2 18 0 25 -3 6 -5 1 -5 -13z"/>
<path d="M2046 3137 c3 -10 9 -15 12 -12 3 3 0 11 -7 18 -10 9 -11 8 -5 -6z"/>
<path d="M3520 7190 c0 -5 9 -10 19 -10 11 0 21 -6 23 -12 3 -9 9 -8 21 4 25
24 21 28 -23 28 -22 0 -40 -4 -40 -10z"/>
<path d="M3750 7185 c0 -16 36 -20 58 -6 11 7 10 10 -3 15 -29 11 -55 7 -55
-9z"/>
<path d="M3840 7174 c0 -22 4 -25 28 -22 19 2 28 9 30 26 3 19 -1 22 -27 22
-27 0 -31 -4 -31 -26z"/>
<path d="M3740 7113 c8 -3 21 -10 28 -16 8 -7 12 -5 12 7 0 11 -8 16 -27 15
-16 0 -22 -3 -13 -6z"/>
<path d="M4005 7091 c-3 -5 -1 -12 5 -16 12 -7 30 2 30 16 0 12 -27 12 -35 0z"/>
<path d="M3608 7023 c7 -3 16 -2 19 1 4 3 -2 6 -13 5 -11 0 -14 -3 -6 -6z"/>
<path d="M3850 6964 c0 -14 4 -23 10 -19 6 3 10 15 10 26 0 10 -4 19 -10 19
-5 0 -10 -12 -10 -26z"/>
<path d="M3948 6965 c2 -14 9 -25 14 -25 6 0 7 7 4 16 -3 9 -6 20 -6 25 0 5
-4 9 -9 9 -4 0 -6 -11 -3 -25z"/>
<path d="M3550 6917 c0 -8 7 -20 15 -27 12 -10 15 -10 15 3 0 8 -7 20 -15 27
-12 10 -15 10 -15 -3z"/>
<path d="M3510 6896 c0 -8 5 -18 10 -21 6 -3 10 1 10 9 0 8 -4 18 -10 21 -5 3
-10 -1 -10 -9z"/>
<path d="M3113 6753 c-30 -6 -29 -19 0 -25 17 -3 23 0 23 14 0 10 0 17 -1 17
0 -1 -10 -4 -22 -6z"/>
<path d="M2996 5641 c-3 -4 -22 -8 -43 -8 -21 0 -79 -13 -128 -28 -73 -22 -97
-34 -127 -66 -41 -42 -45 -52 -25 -71 8 -7 12 -20 9 -30 -7 -27 8 -22 45 14
l33 32 0 -26 c0 -37 36 -78 69 -78 41 0 65 31 58 75 -6 39 -2 42 31 19 27 -19
52 -65 52 -98 0 -26 -38 -46 -89 -46 -23 -1 -24 -2 -8 -11 11 -6 30 -8 45 -3
15 4 30 7 33 6 4 -1 15 8 24 18 10 11 14 20 10 20 -5 0 7 14 26 31 21 20 29
33 22 36 -7 3 -13 12 -13 22 0 29 -52 68 -110 81 -49 12 -52 14 -30 22 38 14
91 16 122 4 27 -10 56 -65 44 -84 -2 -4 -1 -14 5 -22 7 -12 9 -10 9 8 0 21 9
26 37 23 18 -2 -35 120 -64 146 -27 26 -30 27 -37 14z m-136 -121 c0 -5 -7
-10 -16 -10 -8 0 -12 5 -9 10 3 6 10 10 16 10 5 0 9 -4 9 -10z m75 -14 c19 -8
35 -18 35 -21 0 -3 -5 -3 -11 1 -7 4 -30 13 -53 20 -23 7 -33 13 -23 13 10 1
33 -6 52 -13z m-80 -46 c3 -6 -1 -13 -10 -16 -19 -8 -30 0 -20 15 8 14 22 14
30 1z m-5 -60 c0 -5 -2 -10 -4 -10 -3 0 -8 5 -11 10 -3 6 -1 10 4 10 6 0 11
-4 11 -10z"/>
<path d="M2725 5330 c12 -20 85 -60 107 -60 20 0 18 3 -11 17 -19 9 -36 25
-39 35 -3 12 -14 18 -34 18 -18 0 -27 -4 -23 -10z"/>
<path d="M1960 4850 c0 -5 5 -10 11 -10 5 0 7 5 4 10 -3 6 -8 10 -11 10 -2 0
-4 -4 -4 -10z"/>
<path d="M1950 4710 c0 -5 5 -10 11 -10 5 0 7 5 4 10 -3 6 -8 10 -11 10 -2 0
-4 -4 -4 -10z"/>
<path d="M2135 4629 c-4 -12 -2 -26 4 -32 8 -8 11 -7 11 3 0 7 3 10 7 7 3 -4
12 -2 20 4 10 9 18 8 32 -5 11 -10 42 -19 76 -21 58 -5 70 -9 70 -26 0 -5 3
-9 8 -9 4 0 11 0 17 0 5 0 7 7 4 15 -6 14 5 14 98 0 15 -2 29 1 32 8 2 7 5 8
5 2 1 -6 37 -10 89 -9 111 1 112 1 112 17 0 18 -35 34 -90 41 -41 6 -43 5 -26
-9 19 -15 19 -15 -1 -15 -12 0 -25 5 -28 10 -3 6 -19 10 -34 10 -16 0 -41 6
-55 14 -28 14 -235 15 -287 1 -16 -4 -30 -2 -33 4 -11 17 -24 13 -31 -10z
m545 -29 c0 -5 -2 -10 -4 -10 -3 0 -8 5 -11 10 -3 6 -1 10 4 10 6 0 11 -4 11
-10z"/>
<path d="M2102 4620 c0 -14 2 -19 5 -12 2 6 2 18 0 25 -3 6 -5 1 -5 -13z"/>
<path d="M2740 4586 c0 -2 7 -7 16 -10 8 -3 12 -2 9 4 -6 10 -25 14 -25 6z"/>
<path d="M2240 4540 c0 -5 6 -10 13 -10 8 0 7 -4 -3 -10 -12 -8 -11 -10 8 -10
24 0 28 10 10 28 -15 15 -28 16 -28 2z"/>
<path d="M2300 4520 c0 -7 8 -10 20 -7 10 3 21 0 22 -5 7 -21 208 -79 208 -60
0 5 15 13 33 17 l32 7 -40 12 c-22 7 -65 13 -95 15 -30 1 -59 6 -65 11 -19 16
-115 24 -115 10z"/>
<path d="M2068 4443 c7 -3 16 -2 19 1 4 3 -2 6 -13 5 -11 0 -14 -3 -6 -6z"/>
<path d="M2105 4410 c3 -5 8 -10 11 -10 2 0 4 5 4 10 0 6 -5 10 -11 10 -5 0
-7 -4 -4 -10z"/>
<path d="M2115 4381 c-8 -15 3 -31 21 -31 9 0 14 7 12 17 -4 20 -24 28 -33 14z"/>
</g>
</svg>
